<svg xmlns="http://www.w3.org/2000/svg" fill="none" viewBox="0 0 618 536"><path stroke="#02BFE7" stroke-dasharray="7 7" d="M11.544 515.769c133.729 0 242.138-108.409 242.138-242.138 0-133.729-108.409-242.138-242.138-242.138"/><path stroke="#fff" stroke-linecap="round" stroke-width="12" d="M9.673 440.027c91.958 0 166.505-74.547 166.505-166.505S101.631 107.018 9.673 107.018"/><path fill="#02BFE7" d="M43.202 341.045h2.742v9.082h-2.742v-9.082Zm-14.32 7.934h17.062v3.516H28.88v-3.516Zm6.949-6.75h2.671v7.898h-2.671v-7.898Zm-6.95-1.172h2.754v9.07h-2.754v-9.07Zm8.414-8.508h2.649v6.621h-2.649v-6.621Zm-.27-16.547h6.763c.32.266.668.676 1.043 1.231.367.555.683 1.269.949 2.144.265.875.398 1.934.398 3.176 0 1.102-.18 2.106-.539 3.012a6.518 6.518 0 0 1-1.605 2.344c-.703.648-1.563 1.148-2.578 1.5-1.024.351-2.192.527-3.504.527h-1.067c-1.312 0-2.48-.168-3.504-.504-1.023-.344-1.886-.832-2.59-1.465a6.27 6.27 0 0 1-1.605-2.261c-.367-.875-.55-1.848-.55-2.918 0-1.485.241-2.704.726-3.657.476-.953 1.14-1.679 1.992-2.179.844-.508 1.813-.821 2.906-.938v3.41c-.578.086-1.082.25-1.511.493-.43.242-.766.589-1.008 1.042-.242.446-.364 1.024-.364 1.735 0 .586.122 1.109.364 1.57.234.453.582.836 1.043 1.149.46.312 1.03.55 1.71.714.68.165 1.47.247 2.368.247h1.09c.89 0 1.68-.086 2.367-.258.68-.172 1.254-.426 1.722-.762.461-.344.81-.766 1.044-1.266.234-.5.351-1.082.351-1.746 0-.554-.047-1.015-.14-1.383a3.473 3.473 0 0 0-.34-.902 2.847 2.847 0 0 0-.399-.539h-3.023v3.211h-2.508v-6.727Zm2.708-2.085h-.246c-.93 0-1.785-.133-2.567-.399a5.94 5.94 0 0 1-2.05-1.16 5.202 5.202 0 0 1-1.348-1.875c-.328-.742-.492-1.594-.492-2.555 0-.961.164-1.816.492-2.566.32-.75.77-1.379 1.348-1.887a5.84 5.84 0 0 1 2.05-1.172c.782-.265 1.637-.398 2.567-.398h.246c.922 0 1.777.133 2.566.398a5.98 5.98 0 0 1 2.051 1.172 5.203 5.203 0 0 1 1.348 1.875c.32.742.48 1.594.48 2.555 0 .961-.16 1.816-.48 2.566a5.319 5.319 0 0 1-1.348 1.887 6.087 6.087 0 0 1-2.05 1.16 7.986 7.986 0 0 1-2.567.399Zm-.246-3.375h.246c.531 0 1.027-.047 1.488-.141a4.03 4.03 0 0 0 1.219-.445c.344-.211.613-.485.809-.821.195-.336.292-.746.292-1.23 0-.469-.097-.871-.292-1.207a2.228 2.228 0 0 0-.81-.809 4.03 4.03 0 0 0-1.218-.445 6.882 6.882 0 0 0-1.488-.152h-.246c-.516 0-1 .05-1.453.152-.461.094-.867.246-1.22.457-.358.203-.64.473-.843.808-.203.336-.304.743-.304 1.219 0 .477.101.883.304 1.219a2.4 2.4 0 0 0 .844.809c.352.203.758.351 1.219.445.453.094.937.141 1.453.141Zm3.996-14.836-10.219-2.813v-3.527l12.68 4.277v2.133l-2.461-.07Zm-10.219 1.933 10.23-2.824 2.45-.059v2.145l-12.68 4.277v-3.539Zm12.914-15.457c0 .985-.156 1.867-.468 2.649a5.818 5.818 0 0 1-1.325 1.992 5.884 5.884 0 0 1-1.957 1.242 6.591 6.591 0 0 1-2.39.434h-.47c-.96 0-1.839-.137-2.636-.411a6.206 6.206 0 0 1-2.074-1.171 5.154 5.154 0 0 1-1.348-1.875c-.32-.735-.48-1.563-.48-2.485 0-.898.148-1.695.445-2.39a4.684 4.684 0 0 1 1.266-1.747 5.466 5.466 0 0 1 1.968-1.078c.758-.242 1.602-.363 2.532-.363h1.406v10.078h-2.25v-6.762h-.258c-.469 0-.887.086-1.254.258a1.99 1.99 0 0 0-.89.75c-.22.336-.328.766-.328 1.289 0 .446.097.828.292 1.149.196.32.47.582.82.785.352.195.766.344 1.243.445a7.88 7.88 0 0 0 1.547.141h.469c.507 0 .976-.07 1.406-.211.43-.149.8-.356 1.113-.621.313-.274.555-.602.727-.985.172-.39.258-.832.258-1.324 0-.609-.118-1.176-.352-1.699a3.68 3.68 0 0 0-1.09-1.371l1.781-1.641c.383.266.75.629 1.102 1.09.352.453.64 1 .867 1.641.219.64.328 1.371.328 2.191Zm-10.148-10.5h9.914v3.375h-12.68v-3.176l2.766-.199Zm-2.848-3.82 3.129.058a8.247 8.247 0 0 0-.059.598 6.099 6.099 0 0 0-.035.621c0 .477.063.891.188 1.242.117.344.293.633.527.868.234.226.52.398.856.515.336.11.718.172 1.148.188l-.21.679c-.821 0-1.575-.082-2.263-.246-.695-.164-1.3-.402-1.816-.715a3.58 3.58 0 0 1-1.195-1.171c-.282-.461-.422-.989-.422-1.582 0-.188.015-.379.047-.575.023-.195.058-.355.105-.48Zm2.79-4.899h9.972v3.375h-12.68v-3.164l2.707-.211Zm3.187.493v.914c-.938 0-1.782-.121-2.532-.364-.757-.242-1.402-.582-1.933-1.019a4.382 4.382 0 0 1-1.23-1.559c-.29-.609-.434-1.289-.434-2.039 0-.594.086-1.137.258-1.629.172-.492.445-.914.82-1.265.375-.36.871-.633 1.488-.821.617-.195 1.371-.293 2.262-.293h8.086v3.399h-8.098c-.562 0-1 .078-1.312.234a1.315 1.315 0 0 0-.657.692c-.132.296-.199.664-.199 1.101 0 .453.09.848.27 1.184.18.328.43.601.75.82.312.211.68.371 1.101.481a5.42 5.42 0 0 0 1.36.164Zm3.925-17.485h-5.648c-.406 0-.754.067-1.043.199-.297.133-.527.34-.691.622-.164.273-.246.628-.246 1.066 0 .375.066.699.199.973.125.273.308.484.55.632.235.149.512.223.833.223v3.375c-.54 0-1.051-.125-1.536-.375a3.823 3.823 0 0 1-1.277-1.09 5.376 5.376 0 0 1-.879-1.699c-.21-.664-.316-1.406-.316-2.227 0-.984.164-1.859.492-2.625.328-.765.82-1.367 1.477-1.804.656-.446 1.476-.668 2.46-.668h5.426c.696 0 1.266-.043 1.711-.129a4.51 4.51 0 0 0 1.149-.375h.199v3.41c-.344.164-.774.289-1.29.375-.523.078-1.046.117-1.57.117Zm-4.863-.445 1.91-.024v1.887c0 .445.051.832.153 1.16.101.328.246.598.433.809.18.211.39.367.633.469.242.093.508.14.797.14.289 0 .55-.066.785-.199a1.42 1.42 0 0 0 .54-.574c.124-.25.187-.543.187-.879 0-.508-.102-.949-.305-1.324-.203-.375-.453-.664-.75-.867-.297-.211-.578-.321-.844-.329l1.43-.89c.32.125.652.297.996.515.344.211.668.481.973.809.297.328.543.723.738 1.184.188.461.281 1.007.281 1.64 0 .805-.16 1.535-.48 2.192a4 4 0 0 1-1.348 1.547c-.578.375-1.234.562-1.969.562-.664 0-1.254-.125-1.77-.375a3.449 3.449 0 0 1-1.3-1.102c-.36-.492-.629-1.105-.809-1.839-.187-.735-.28-1.586-.28-2.555v-1.957Zm-2.25-8.859h9.973v3.375h-12.68v-3.165l2.707-.21Zm3.188.492v.914c-.938 0-1.782-.121-2.532-.364-.757-.242-1.402-.582-1.933-1.019a4.382 4.382 0 0 1-1.23-1.559c-.29-.609-.434-1.289-.434-2.039 0-.593.086-1.136.258-1.629.172-.492.445-.914.82-1.265.375-.36.871-.633 1.488-.821.617-.195 1.371-.293 2.262-.293h8.086v3.399h-8.098c-.562 0-1 .078-1.312.234a1.319 1.319 0 0 0-.657.692c-.132.297-.199.664-.199 1.101 0 .453.09.848.27 1.184.18.328.43.601.75.82.312.211.68.371 1.101.481a5.42 5.42 0 0 0 1.36.164Zm4.383-15.879c0-.414-.079-.781-.235-1.102-.164-.32-.39-.57-.68-.75a1.993 1.993 0 0 0-1.043-.293v-3.176c.891.008 1.684.247 2.38.715a4.92 4.92 0 0 1 1.628 1.887c.39.789.586 1.672.586 2.648 0 .985-.164 1.844-.492 2.579a5.033 5.033 0 0 1-1.36 1.816 5.96 5.96 0 0 1-2.038 1.09 8.432 8.432 0 0 1-2.508.363h-.34a8.358 8.358 0 0 1-2.508-.363 5.819 5.819 0 0 1-2.039-1.09 4.973 4.973 0 0 1-1.371-1.816c-.328-.727-.492-1.579-.492-2.555 0-1.039.199-1.949.597-2.731a4.45 4.45 0 0 1 1.711-1.851c.735-.453 1.606-.684 2.614-.692v3.176a2.645 2.645 0 0 0-1.149.27 1.944 1.944 0 0 0-.82.726c-.211.313-.316.7-.316 1.161 0 .492.105.894.316 1.207.203.312.484.554.844.726.351.172.754.293 1.207.363.445.063.914.094 1.406.094h.34c.492 0 .965-.031 1.418-.094a3.95 3.95 0 0 0 1.207-.351c.351-.18.629-.426.832-.738.203-.313.304-.719.304-1.219Zm2.636-13.113c0 .984-.156 1.867-.468 2.648a5.818 5.818 0 0 1-1.325 1.992 5.884 5.884 0 0 1-1.957 1.242 6.591 6.591 0 0 1-2.39.434h-.47c-.96 0-1.839-.137-2.636-.41a6.207 6.207 0 0 1-2.074-1.172 5.154 5.154 0 0 1-1.348-1.875c-.32-.734-.48-1.563-.48-2.484 0-.899.148-1.696.445-2.391a4.688 4.688 0 0 1 1.266-1.746c.547-.477 1.203-.836 1.968-1.078.758-.243 1.602-.364 2.532-.364h1.406v10.079h-2.25v-6.762h-.258c-.469 0-.887.086-1.254.258a1.99 1.99 0 0 0-.89.75c-.22.336-.328.765-.328 1.289 0 .445.097.828.292 1.148.196.32.47.582.82.785.352.196.766.344 1.243.446.469.093.984.14 1.547.14h.469c.507 0 .976-.07 1.406-.211.43-.148.8-.355 1.113-.621.313-.273.555-.601.727-.984.172-.391.258-.832.258-1.324 0-.61-.118-1.176-.352-1.7a3.682 3.682 0 0 0-1.09-1.371l1.781-1.64c.383.265.75.629 1.102 1.089.352.454.64 1 .867 1.641.219.641.328 1.371.328 2.192Z"/><circle cx="6.447" cy="31.493" r="5.947" fill="#858585"/><circle cx="6.447" cy="515.769" r="5.947" fill="#858585"/><path stroke="#858585" stroke-width="5" d="m161.952 80.611 42.48-38.232"/><rect width="191" height="72" x="201.856" y=".057" fill="#F39C12" rx="36"/><rect width="60" height="60" x="208.856" y="6.058" fill="#fff" rx="30"/><g fill="#171717"><path d="M247.538 23.61c.292 1.518 1.602 2.63 3.127 2.63 1.524 0 2.834-1.112 3.126-2.63l.385-1.988a3.43 3.43 0 0 0-.785-2.677 3.29 3.29 0 0 0-2.495-1.159h-.447c-.955 0-1.864.423-2.495 1.159a3.425 3.425 0 0 0-.786 2.724l.37 1.94Zm1.571-3.632a1.798 1.798 0 0 1 1.355-.626h.447c.524 0 1.001.219 1.355.626.339.391.493.923.432 1.393l-.37 1.941a1.66 1.66 0 0 1-1.633 1.362c-.801 0-1.478-.579-1.632-1.362l-.37-1.894a1.806 1.806 0 0 1 .416-1.44ZM257.842 33.927l-.878-4.227a1.512 1.512 0 0 0-.955-1.112l-3.034-1.096-2.28 2.317-2.279-2.317-3.035 1.096a1.514 1.514 0 0 0-.955 1.112l-.878 4.227c-.092.422.17.83.586.923a.759.759 0 0 0 .908-.595l.863-4.195 2.126-.767 2.68 2.724 2.68-2.724 2.094.736.878 4.226c.077.36.401.61.755.61.046 0 .108 0 .154-.015.385-.078.647-.5.57-.923ZM223.894 23.61c.293 1.518 1.602 2.63 3.127 2.63 1.525 0 2.834-1.112 3.127-2.63l.385-1.988a3.43 3.43 0 0 0-.786-2.677 3.289 3.289 0 0 0-2.495-1.159h-.447a3.29 3.29 0 0 0-2.495 1.159 3.428 3.428 0 0 0-.785 2.724l.369 1.94Zm1.571-3.632a1.799 1.799 0 0 1 1.356-.626h.446c.524 0 1.002.219 1.356.626.339.391.493.923.431 1.393l-.37 1.941a1.658 1.658 0 0 1-1.632 1.362c-.801 0-1.479-.579-1.633-1.362l-.37-1.894a1.753 1.753 0 0 1 .416-1.44ZM229.717 29.293l2.095.736.878 4.226c.077.36.4.61.754.61.047 0 .108 0 .154-.015a.773.773 0 0 0 .586-.923l-.878-4.227a1.514 1.514 0 0 0-.955-1.112l-3.035-1.096-2.295 2.333-2.279-2.333-3.035 1.096a1.514 1.514 0 0 0-.955 1.112l-.877 4.227a.771.771 0 0 0 .585.923.76.76 0 0 0 .909-.595l.847-4.195 2.125-.767 2.68 2.724 2.696-2.724ZM238.851 45.684c1.525 0 2.834-1.112 3.127-2.63l.385-1.989a3.43 3.43 0 0 0-.786-2.677 3.289 3.289 0 0 0-2.495-1.158h-.447a3.29 3.29 0 0 0-2.495 1.158 3.428 3.428 0 0 0-.785 2.724l.369 1.942c.293 1.518 1.602 2.63 3.127 2.63Zm-1.571-6.262a1.798 1.798 0 0 1 1.355-.627h.447c.524 0 1.001.22 1.356.627.338.391.492.923.431 1.393l-.37 1.941a1.66 1.66 0 0 1-1.633 1.362c-.801 0-1.478-.58-1.632-1.362l-.37-1.894a1.806 1.806 0 0 1 .416-1.44ZM245.135 49.16a1.512 1.512 0 0 0-.955-1.112l-3.034-1.096-2.295 2.317-2.28-2.317-3.034 1.096a1.514 1.514 0 0 0-.955 1.111l-.878 4.227c-.092.423.17.83.585.924a.76.76 0 0 0 .909-.595l.847-4.196 2.126-.767 2.68 2.724 2.68-2.724 2.095.736.878 4.227c.077.36.4.61.754.61.047 0 .108 0 .155-.015a.773.773 0 0 0 .585-.924l-.863-4.227ZM252.005 36.917a.747.747 0 0 0-.832.704 12.51 12.51 0 0 1-4.267 8.297.797.797 0 0 0-.092 1.096c.154.188.37.267.585.267.17 0 .354-.063.493-.188a14.093 14.093 0 0 0 4.806-9.33.792.792 0 0 0-.693-.846ZM226.544 37.621a.787.787 0 0 0-.832-.704.792.792 0 0 0-.693.845c.354 3.648 2.064 6.967 4.805 9.33a.75.75 0 0 0 .493.189.755.755 0 0 0 .586-.282.782.782 0 0 0-.093-1.096 12.443 12.443 0 0 1-4.266-8.282ZM234.8 24.486c2.572-.923 5.529-.923 8.117 0a.708.708 0 0 0 .262.047.78.78 0 0 0 .724-.516.771.771 0 0 0-.463-.986 13.647 13.647 0 0 0-9.133 0 .776.776 0 0 0-.462.986c.107.407.554.61.955.47Z"/></g><path fill="#fff" d="M285.24 29.26h4.772c.979 0 1.82.147 2.523.44.709.293 1.254.727 1.634 1.3.381.575.572 1.281.572 2.119 0 .686-.117 1.274-.352 1.767a3.31 3.31 0 0 1-.975 1.221c-.416.323-.906.58-1.468.774l-.835.44h-4.149l-.017-2.057h3.085c.463 0 .846-.083 1.151-.247.305-.164.533-.392.686-.685.158-.293.237-.633.237-1.02 0-.41-.076-.764-.229-1.063a1.537 1.537 0 0 0-.694-.686c-.31-.158-.7-.237-1.169-.237h-2.136v10.731h-2.636V29.261Zm7.154 12.797-2.918-5.704 2.786-.017 2.953 5.598v.123h-2.821Zm8.596.176c-.739 0-1.401-.117-1.987-.351a4.358 4.358 0 0 1-1.494-.993 4.403 4.403 0 0 1-.931-1.468 4.938 4.938 0 0 1-.326-1.793v-.352c0-.72.103-1.38.308-1.977a4.647 4.647 0 0 1 .879-1.556c.387-.44.855-.776 1.406-1.01.551-.24 1.172-.361 1.863-.361.674 0 1.272.111 1.793.334.522.223.958.539 1.31.95.357.41.627.901.809 1.476.181.568.272 1.2.272 1.898v1.055h-7.559v-1.688h5.072v-.193c0-.352-.065-.665-.194-.94a1.49 1.49 0 0 0-.562-.668c-.252-.164-.574-.246-.967-.246-.334 0-.621.073-.861.22a1.7 1.7 0 0 0-.589.614 3.327 3.327 0 0 0-.334.932c-.07.352-.106.738-.106 1.16v.352c0 .38.053.732.159 1.054.111.323.266.601.466.835.205.235.451.416.738.545.293.13.624.194.993.194a3.08 3.08 0 0 0 1.274-.264 2.756 2.756 0 0 0 1.029-.817l1.23 1.336a3.753 3.753 0 0 1-.817.826c-.34.263-.75.48-1.231.65-.48.164-1.028.246-1.643.246Zm10.485-2.803a.825.825 0 0 0-.158-.493c-.106-.146-.302-.28-.589-.404-.281-.129-.688-.246-1.222-.352a9.54 9.54 0 0 1-1.344-.395 4.657 4.657 0 0 1-1.073-.589 2.571 2.571 0 0 1-.703-.809 2.248 2.248 0 0 1-.255-1.08c0-.399.085-.774.255-1.126.176-.351.425-.662.747-.931.328-.276.727-.49 1.196-.642a5.032 5.032 0 0 1 1.599-.237c.826 0 1.535.132 2.127.395.598.264 1.055.627 1.371 1.09.323.457.484.979.484 1.565h-2.532c0-.246-.052-.466-.158-.66a1.044 1.044 0 0 0-.474-.465c-.211-.117-.487-.176-.827-.176-.281 0-.524.05-.729.15a1.124 1.124 0 0 0-.475.386.933.933 0 0 0-.158.527c0 .147.029.279.088.396a.953.953 0 0 0 .308.308c.14.093.322.181.545.263.228.076.509.147.843.211.686.14 1.298.325 1.837.554.539.223.967.527 1.283.914.317.38.475.882.475 1.503 0 .422-.094.809-.281 1.16-.188.352-.457.66-.809.923-.351.258-.773.46-1.265.606a5.921 5.921 0 0 1-1.644.211c-.885 0-1.635-.158-2.25-.474-.609-.317-1.072-.718-1.389-1.204-.31-.493-.465-.996-.465-1.512h2.399c.012.346.1.624.264.835.17.21.383.363.641.457.264.094.548.14.853.14.328 0 .6-.044.817-.131.217-.094.381-.217.492-.37a.886.886 0 0 0 .176-.544Zm3.7-2.03v-.185c0-.698.1-1.34.299-1.925a4.447 4.447 0 0 1 .87-1.538c.381-.434.85-.77 1.406-1.01.557-.247 1.196-.37 1.917-.37.72 0 1.362.123 1.924.37.563.24 1.034.576 1.415 1.01.387.433.68.946.879 1.538.199.586.299 1.227.299 1.925v.184c0 .692-.1 1.333-.299 1.925a4.479 4.479 0 0 1-.879 1.538c-.381.434-.849.77-1.406 1.01-.557.241-1.195.361-1.916.361-.721 0-1.362-.12-1.925-.36a3.99 3.99 0 0 1-1.415-1.01 4.558 4.558 0 0 1-.87-1.539 6.003 6.003 0 0 1-.299-1.925Zm2.532-.185v.184c0 .399.035.77.105 1.117.07.345.182.65.334.914.158.257.363.46.615.606.252.146.56.22.923.22.352 0 .653-.074.905-.22.252-.147.454-.349.607-.606.152-.264.263-.569.334-.914.076-.346.114-.718.114-1.117v-.184c0-.387-.038-.75-.114-1.09a2.899 2.899 0 0 0-.343-.914 1.698 1.698 0 0 0-.606-.633c-.252-.152-.557-.229-.914-.229-.358 0-.663.077-.915.229a1.796 1.796 0 0 0-.606.633 3.018 3.018 0 0 0-.334.914c-.07.34-.105.703-.105 1.09Zm13.658 2.566v-7.233h2.531v9.51h-2.382l-.149-2.277Zm.281-1.951.747-.018c0 .633-.073 1.222-.22 1.767a4.202 4.202 0 0 1-.659 1.406c-.293.393-.662.7-1.107.923-.446.217-.97.325-1.574.325-.462 0-.89-.064-1.283-.193a2.623 2.623 0 0 1-1.002-.624 3.025 3.025 0 0 1-.65-1.099c-.152-.45-.229-.993-.229-1.626v-6.143h2.532v6.16c0 .282.032.52.096.713.071.193.167.351.29.474.123.123.267.211.431.264.17.053.357.08.563.08.521 0 .931-.106 1.23-.317.305-.211.519-.498.642-.862.129-.369.193-.779.193-1.23Zm6.715-3.208v7.435h-2.531v-9.51h2.381l.15 2.075Zm2.865-2.136-.044 2.347a6.123 6.123 0 0 0-.448-.044 4.577 4.577 0 0 0-.466-.026c-.357 0-.668.046-.932.14-.257.088-.474.22-.65.396-.17.175-.299.39-.387.641-.082.252-.129.54-.14.862l-.51-.159c0-.615.061-1.18.184-1.696.124-.521.302-.975.537-1.362.24-.387.533-.686.879-.897a2.229 2.229 0 0 1 1.186-.316c.141 0 .284.012.431.035.146.018.266.044.36.08Zm4.948 7.77c.311 0 .586-.059.826-.176.241-.123.428-.293.563-.51.141-.223.214-.483.22-.782h2.382a3.167 3.167 0 0 1-.537 1.784 3.68 3.68 0 0 1-1.415 1.222c-.591.293-1.254.44-1.986.44-.738 0-1.383-.124-1.934-.37a3.78 3.78 0 0 1-1.362-1.02 4.46 4.46 0 0 1-.817-1.529 6.308 6.308 0 0 1-.273-1.88v-.255c0-.674.091-1.301.273-1.881a4.356 4.356 0 0 1 .817-1.53c.363-.439.818-.782 1.362-1.028.545-.246 1.184-.37 1.916-.37.78 0 1.462.15 2.048.45a3.339 3.339 0 0 1 1.389 1.282c.34.551.513 1.204.519 1.96h-2.382a1.998 1.998 0 0 0-.202-.861 1.459 1.459 0 0 0-.545-.615c-.235-.158-.525-.238-.87-.238-.37 0-.671.08-.906.238a1.519 1.519 0 0 0-.545.633 3.157 3.157 0 0 0-.272.905 7.57 7.57 0 0 0-.07 1.055v.254c0 .37.023.724.07 1.064.047.34.135.642.264.905.134.264.319.472.553.624.235.153.539.229.914.229Zm9.835 1.977c-.738 0-1.4-.117-1.986-.351a4.358 4.358 0 0 1-1.494-.993 4.421 4.421 0 0 1-.932-1.468 4.938 4.938 0 0 1-.325-1.793v-.352c0-.72.103-1.38.308-1.977a4.663 4.663 0 0 1 .878-1.556c.387-.44.856-.776 1.407-1.01.551-.24 1.172-.361 1.863-.361.674 0 1.272.111 1.793.334.521.223.958.539 1.31.95.357.41.627.901.808 1.476.182.568.273 1.2.273 1.898v1.055h-7.559v-1.688h5.071v-.193c0-.352-.064-.665-.193-.94a1.493 1.493 0 0 0-.563-.668c-.251-.164-.574-.246-.966-.246-.334 0-.621.073-.862.22-.24.146-.436.35-.589.614a3.391 3.391 0 0 0-.334.932c-.07.352-.105.738-.105 1.16v.352c0 .38.053.732.158 1.054.112.323.267.601.466.835.205.235.451.416.738.545.293.13.624.194.993.194.458 0 .882-.088 1.275-.264a2.761 2.761 0 0 0 1.028-.817l1.231 1.336a3.76 3.76 0 0 1-.818.826c-.34.263-.75.48-1.23.65-.481.164-1.028.246-1.644.246Zm10.486-2.803a.82.82 0 0 0-.159-.493c-.105-.146-.301-.28-.588-.404-.282-.129-.689-.246-1.222-.352a9.516 9.516 0 0 1-1.345-.395 4.67 4.67 0 0 1-1.072-.589 2.558 2.558 0 0 1-.703-.809 2.248 2.248 0 0 1-.255-1.08c0-.399.085-.774.255-1.126.176-.351.425-.662.747-.931a3.53 3.53 0 0 1 1.195-.642 5.043 5.043 0 0 1 1.6-.237c.826 0 1.535.132 2.127.395.597.264 1.054.627 1.371 1.09.322.457.483.979.483 1.565h-2.531c0-.246-.053-.466-.158-.66-.1-.199-.258-.354-.475-.465-.211-.117-.486-.176-.826-.176-.281 0-.524.05-.73.15a1.115 1.115 0 0 0-.474.386.926.926 0 0 0-.158.527c0 .147.029.279.088.396a.96.96 0 0 0 .307.308c.141.093.322.181.545.263.229.076.51.147.844.211a9.72 9.72 0 0 1 1.837.554c.539.223.967.527 1.283.914.316.38.475.882.475 1.503 0 .422-.094.809-.282 1.16-.187.352-.457.66-.808.923-.352.258-.774.46-1.266.606a5.909 5.909 0 0 1-1.643.211c-.885 0-1.635-.158-2.25-.474-.61-.317-1.073-.718-1.389-1.204-.311-.493-.466-.996-.466-1.512h2.399c.012.346.1.624.264.835.17.21.384.363.642.457.263.094.548.14.852.14.328 0 .601-.044.818-.131.216-.094.381-.217.492-.37a.893.893 0 0 0 .176-.544Z"/><circle cx="161.076" cy="82.469" r="6.996" fill="#DBDBDB" stroke="#858585" stroke-width="3"/><circle cx="161.076" cy="463.943" r="6.996" fill="#DBDBDB" stroke="#858585" stroke-width="3"/><path stroke="#858585" stroke-width="5" d="m166.996 468.032 42.478 38.234"/><rect width="161" height="72" x="201.856" y="463.942" fill="#2980B9" rx="36"/><rect width="60" height="60" x="208.856" y="469.942" fill="#fff" rx="30"/><g fill="#000"><path d="M251.022 499.126a4.81 4.81 0 0 1-4.815-4.805 4.81 4.81 0 0 1 4.815-4.804 4.81 4.81 0 0 1 4.815 4.804 4.81 4.81 0 0 1-4.815 4.805Zm0-1.288a3.522 3.522 0 0 0 3.527-3.517 3.522 3.522 0 0 0-3.527-3.516 3.521 3.521 0 0 0-3.527 3.516 3.522 3.522 0 0 0 3.527 3.517Zm-24.332 3.368c-2.823 0-4.585 2.163-5.5 5.908a23.113 23.113 0 0 0-.573 3.825 26.955 26.955 0 0 0-.069 1.778h7.864c.354-3.457 1.091-6.619 2.324-9.191-.993-1.516-2.312-2.32-4.046-2.32Zm5.357 2.574c-1.316 2.599-2.08 5.952-2.408 9.638l-.052.587h-10.293l-.025-.618-.005-.156c-.013-.634.002-1.45.068-2.383.098-1.386.292-2.754.607-4.039 1.039-4.254 3.187-6.891 6.751-6.891 2.333 0 4.106 1.171 5.336 3.242l.181.304-.16.316Zm25.117 8.937a26.282 26.282 0 0 0-.069-1.778 23.008 23.008 0 0 0-.573-3.825c-.915-3.745-2.677-5.908-5.5-5.908-1.392 0-2.511.517-3.415 1.502 1.486 2.689 2.351 6.154 2.745 10.009h6.812Zm-8.039.701c-.366-4.112-1.268-7.78-2.855-10.454l-.226-.381.275-.347c1.185-1.496 2.755-2.318 4.703-2.318 3.564 0 5.712 2.637 6.752 6.891.314 1.285.508 2.653.606 4.039.066.933.081 1.749.068 2.383l-.005.156-.025.618H249.177l-.052-.587Z"/><path d="M249.187 514.194c-.147-2.07-.436-4.108-.901-6.009-1.458-5.968-4.307-9.464-8.904-9.464-4.597 0-7.445 3.496-8.904 9.464-.465 1.901-.754 3.939-.901 6.009a41.238 41.238 0 0 0-.107 3.149h19.824a40.728 40.728 0 0 0-.107-3.149Zm-9.805-16.761c5.338 0 8.573 3.97 10.156 10.446.483 1.978.783 4.087.934 6.224a40.651 40.651 0 0 1 .097 3.91l-.025.618H228.22l-.025-.618-.007-.236c-.021-.975.002-2.235.104-3.674.152-2.137.451-4.246.935-6.224 1.583-6.476 4.817-10.446 10.155-10.446Zm-12.691 1.693a4.81 4.81 0 0 1-4.816-4.805 4.81 4.81 0 0 1 4.816-4.804 4.81 4.81 0 0 1 4.815 4.804 4.81 4.81 0 0 1-4.815 4.805Zm0-1.288a3.522 3.522 0 0 0 3.527-3.517 3.522 3.522 0 0 0-3.527-3.516 3.521 3.521 0 0 0-3.527 3.516 3.522 3.522 0 0 0 3.527 3.517Zm12.691-2.352c-3.939 0-7.132-3.186-7.132-7.116 0-3.931 3.193-7.116 7.132-7.116 3.939 0 7.133 3.185 7.133 7.116 0 3.93-3.194 7.116-7.133 7.116Zm0-1.289c3.228 0 5.844-2.609 5.844-5.827s-2.616-5.828-5.844-5.828-5.844 2.61-5.844 5.828c0 3.218 2.616 5.827 5.844 5.827Z"/></g><path fill="#fff" d="M289.998 501.381h-3.261v-2.057h3.261c.503 0 .914-.082 1.23-.246.316-.17.548-.404.694-.703a2.26 2.26 0 0 0 .22-1.011c0-.381-.073-.735-.22-1.063a1.774 1.774 0 0 0-.694-.791c-.316-.199-.727-.299-1.23-.299h-2.347v10.731h-2.637v-12.796h4.984c1.002 0 1.86.181 2.575.544.72.358 1.271.853 1.652 1.486s.571 1.356.571 2.171c0 .826-.19 1.541-.571 2.144-.381.604-.932 1.07-1.652 1.398-.715.328-1.573.492-2.575.492Zm10.713 4.737c-.738 0-1.4-.117-1.986-.351a4.37 4.37 0 0 1-1.494-.994 4.416 4.416 0 0 1-.932-1.467 4.96 4.96 0 0 1-.325-1.793v-.352c0-.721.103-1.38.308-1.977a4.641 4.641 0 0 1 .879-1.556c.386-.44.855-.776 1.406-1.011.551-.24 1.172-.36 1.863-.36.674 0 1.272.111 1.793.334.522.222.958.539 1.31.949.357.41.627.902.808 1.477.182.568.273 1.201.273 1.898v1.055h-7.559v-1.688h5.071v-.193c0-.352-.064-.665-.193-.941a1.498 1.498 0 0 0-.562-.668c-.252-.164-.575-.246-.967-.246-.334 0-.621.074-.862.22-.24.147-.436.352-.588.615a3.338 3.338 0 0 0-.334.932 5.873 5.873 0 0 0-.106 1.16v.352c0 .381.053.732.158 1.054.112.323.267.601.466.835.205.235.451.416.738.545.293.129.624.194.994.194.457 0 .881-.088 1.274-.264a2.766 2.766 0 0 0 1.028-.817l1.231 1.336a3.745 3.745 0 0 1-.818.826c-.339.263-.75.48-1.23.65-.48.164-1.028.246-1.644.246Zm4.94-4.834v-.184c0-.698.099-1.339.299-1.925a4.44 4.44 0 0 1 .87-1.538 3.89 3.89 0 0 1 1.406-1.011c.557-.246 1.195-.369 1.916-.369.721 0 1.362.123 1.925.369a3.88 3.88 0 0 1 1.415 1.011c.387.433.68.946.879 1.538a5.95 5.95 0 0 1 .299 1.925v.184c0 .692-.1 1.333-.299 1.925a4.473 4.473 0 0 1-.879 1.538c-.381.434-.85.771-1.406 1.011-.557.24-1.196.36-1.916.36-.721 0-1.363-.12-1.925-.36a3.975 3.975 0 0 1-1.415-1.011 4.552 4.552 0 0 1-.87-1.538 5.976 5.976 0 0 1-.299-1.925Zm2.531-.184v.184c0 .399.035.771.106 1.116.07.346.181.651.334.914.158.258.363.46.615.607.252.146.559.22.923.22.351 0 .653-.074.905-.22.252-.147.454-.349.606-.607.153-.263.264-.568.334-.914a5.12 5.12 0 0 0 .115-1.116v-.184c0-.387-.038-.75-.115-1.09a2.864 2.864 0 0 0-.342-.914 1.703 1.703 0 0 0-.607-.633c-.252-.152-.556-.229-.914-.229-.357 0-.662.077-.914.229a1.79 1.79 0 0 0-.606.633 2.981 2.981 0 0 0-.334.914c-.071.34-.106.703-.106 1.09Zm10.565-2.839v11.338h-2.532v-13.166h2.347l.185 1.828Zm6.02 2.821v.185c0 .691-.082 1.333-.246 1.924a4.805 4.805 0 0 1-.703 1.547 3.338 3.338 0 0 1-1.16 1.02c-.457.24-.985.36-1.582.36-.58 0-1.084-.117-1.512-.351a3.154 3.154 0 0 1-1.081-.985 5.685 5.685 0 0 1-.694-1.485 11.734 11.734 0 0 1-.405-1.811v-.483c.094-.691.229-1.324.405-1.899.175-.58.407-1.081.694-1.502a3.15 3.15 0 0 1 1.072-.994c.428-.234.929-.351 1.503-.351.604 0 1.134.114 1.591.343.463.228.85.556 1.16.984.316.428.554.937.712 1.529.164.592.246 1.248.246 1.969Zm-2.54.185v-.185a5.54 5.54 0 0 0-.105-1.116 2.884 2.884 0 0 0-.317-.905 1.538 1.538 0 0 0-.562-.598c-.229-.147-.507-.22-.835-.22-.346 0-.642.056-.888.167a1.48 1.48 0 0 0-.589.484 2.25 2.25 0 0 0-.343.755 4.857 4.857 0 0 0-.14.994v1.221c.029.434.111.824.246 1.169.135.34.343.61.624.809.281.199.65.299 1.107.299.334 0 .616-.074.844-.22.229-.152.413-.36.554-.624.146-.264.249-.568.307-.914.065-.346.097-.718.097-1.116Zm6.785-8.825v13.5h-2.54v-13.5h2.54Zm6.469 13.676c-.738 0-1.4-.117-1.986-.351a4.384 4.384 0 0 1-1.495-.994 4.414 4.414 0 0 1-.931-1.467 4.939 4.939 0 0 1-.325-1.793v-.352c0-.721.102-1.38.307-1.977a4.641 4.641 0 0 1 .879-1.556 3.87 3.87 0 0 1 1.406-1.011c.551-.24 1.172-.36 1.864-.36.674 0 1.271.111 1.793.334.521.222.958.539 1.309.949.358.41.627.902.809 1.477.181.568.272 1.201.272 1.898v1.055h-7.558v-1.688h5.071v-.193c0-.352-.064-.665-.193-.941a1.5 1.5 0 0 0-.563-.668c-.252-.164-.574-.246-.967-.246-.334 0-.621.074-.861.22-.24.147-.437.352-.589.615a3.37 3.37 0 0 0-.334.932c-.07.352-.105.738-.105 1.16v.352c0 .381.052.732.158 1.054.111.323.266.601.466.835.205.235.451.416.738.545.293.129.624.194.993.194.457 0 .882-.088 1.275-.264a2.766 2.766 0 0 0 1.028-.817l1.23 1.336a3.739 3.739 0 0 1-.817.826c-.34.263-.75.48-1.23.65-.481.164-1.029.246-1.644.246Z"/><path stroke="#858585" stroke-width="5" d="m249.504 200.738 54.295-17.841"/><rect width="200" height="72" x="294.463" y="141.942" fill="#16A085" rx="36"/><rect width="60" height="60" x="301.463" y="147.942" fill="#fff" rx="30"/><g fill="#000"><path d="M335.962 173.87h-1.248v-1.249h-1.509v1.249h-.914v-1.249h-1.509v1.249h-.808v-1.249h-1.509v1.249h-1.248v1.307h-1.283v1.524h1.283v.816h-1.283v1.524h1.283v.923h-1.283v1.524h1.283v1.213h1.248v1.342h1.509v-1.297h.808v1.297h1.509v-1.297h.914v1.297h1.509v-1.342h1.248v-1.213h1.284v-1.524h-1.284v-.923h1.284v-1.524h-1.284v-.816h1.284v-1.524h-1.284v-1.307Zm-1.509 7.307h-5.726v-5.737h5.726v5.737Z"/><path d="M331.589 168.238c-5.516 0-10.004 4.532-10.004 10.103 0 3.041 1.46 5.361 2.635 7.227.855 1.36 1.596 2.535 1.596 3.622v1.333c0 1.034.808 1.874 1.818 1.926v.597c0 1.092.804 1.99 1.844 2.144a2.24 2.24 0 0 0 2.113 1.534c.983 0 1.807-.643 2.111-1.529a2.166 2.166 0 0 0 1.882-2.148v-.599a1.926 1.926 0 0 0 1.782-1.923v-1.333c0-1.088.739-2.262 1.596-3.623 1.173-1.864 2.635-4.186 2.635-7.227 0-5.57-4.489-10.103-10.005-10.103l-.003-.001Zm2.483 24.806a.65.65 0 0 1-.646.652h-3.638a.65.65 0 0 1-.646-.652v-.587h4.93v.587Zm3.613-8.295c-.942 1.496-1.831 2.91-1.831 4.44v1.333a.412.412 0 0 1-.409.413h-7.714a.412.412 0 0 1-.409-.413v-1.333c0-1.53-.889-2.944-1.831-4.44-1.124-1.787-2.398-3.811-2.398-6.41 0-4.73 3.811-8.579 8.495-8.579 4.684 0 8.495 3.849 8.495 8.579 0 2.597-1.274 4.623-2.398 6.41ZM327.493 164.275v3.358h1.509v-3.358a2.376 2.376 0 0 0 1.605-2.245c0-1.314-1.059-2.383-2.359-2.383-1.301 0-2.359 1.069-2.359 2.383 0 1.044.674 1.925 1.604 2.245Zm.755-3.102c.467 0 .848.384.848.857a.853.853 0 0 1-.848.856.854.854 0 0 1-.849-.856c0-.473.381-.857.849-.857ZM318.892 165.894v3.448h5.18v-1.524h-3.671v-1.924a2.377 2.377 0 0 0 1.604-2.245c0-1.314-1.058-2.383-2.359-2.383-1.3 0-2.359 1.069-2.359 2.383 0 1.044.675 1.925 1.605 2.245Zm.754-3.102c.468 0 .849.384.849.857a.854.854 0 0 1-.849.856.853.853 0 0 1-.848-.856c0-.473.381-.857.848-.857ZM314.188 172.599c.326 0 .638-.068.921-.189l2.222 2.242h3.249v-1.524h-2.625l-1.725-1.742c.196-.346.317-.742.317-1.168 0-1.313-1.057-2.382-2.358-2.382-1.301 0-2.359 1.069-2.359 2.382 0 1.314 1.058 2.383 2.359 2.383l-.001-.002ZM320.485 188.399v-5.562h-1.51v5.562a2.375 2.375 0 0 0-1.604 2.245c0 1.313 1.058 2.382 2.359 2.382s2.359-1.069 2.359-2.382a2.375 2.375 0 0 0-1.604-2.245Zm-.755 3.101a.853.853 0 0 1-.848-.856c0-.473.38-.857.848-.857.468 0 .848.384.848.857 0 .472-.38.856-.848.856ZM318.166 178.937h2.412v-1.524h-3.036l-1.803 1.821a2.335 2.335 0 0 0-1.302-.398c-1.301 0-2.359 1.068-2.359 2.382 0 1.313 1.058 2.382 2.359 2.382 1.3 0 2.359-1.069 2.359-2.382a2.36 2.36 0 0 0-.135-.759l1.505-1.52v-.002Zm-3.729 3.138a.854.854 0 0 1-.849-.857c0-.472.381-.857.849-.857.467 0 .848.385.848.857a.854.854 0 0 1-.848.857ZM334.177 164.275v3.358h1.509v-3.358a2.377 2.377 0 0 0 1.604-2.245c0-1.314-1.058-2.383-2.359-2.383-1.3 0-2.359 1.069-2.359 2.383 0 1.044.675 1.925 1.605 2.245Zm.754-3.102c.468 0 .849.384.849.857a.854.854 0 0 1-.849.856.853.853 0 0 1-.848-.856c0-.473.381-.857.848-.857ZM348.742 178.834a2.32 2.32 0 0 0-1.302.399l-1.803-1.821h-3.036v1.524h2.412l1.505 1.52a2.36 2.36 0 0 0-.135.759c0 1.313 1.059 2.382 2.359 2.382 1.301 0 2.359-1.069 2.359-2.382 0-1.313-1.058-2.381-2.359-2.381Zm0 3.239a.854.854 0 0 1-.848-.857c0-.472.381-.856.848-.856.468 0 .849.384.849.856a.854.854 0 0 1-.849.857ZM344.203 188.399v-5.562h-1.509v5.562a2.375 2.375 0 0 0-1.604 2.245c0 1.313 1.058 2.382 2.359 2.382 1.3 0 2.359-1.069 2.359-2.382a2.374 2.374 0 0 0-1.605-2.245Zm-.754 3.101a.854.854 0 0 1-.849-.856c0-.473.381-.857.849-.857.467 0 .848.384.848.857a.853.853 0 0 1-.848.856ZM344.287 165.894a2.376 2.376 0 0 0 1.605-2.245c0-1.314-1.059-2.383-2.359-2.383-1.301 0-2.359 1.069-2.359 2.383 0 1.044.675 1.925 1.604 2.245v1.924h-3.671v1.524h5.18v-3.448Zm-.754-3.102c.467 0 .848.384.848.857a.853.853 0 0 1-.848.856.854.854 0 0 1-.849-.856c0-.473.381-.857.849-.857ZM345.224 173.128h-2.625v1.524h3.25l2.221-2.242c.283.122.594.189.922.189 1.3 0 2.359-1.068 2.359-2.382 0-1.313-1.059-2.382-2.359-2.382-1.301 0-2.358 1.069-2.358 2.382 0 .427.12.822.316 1.168l-1.724 1.742-.002.001Z"/></g><path fill="#fff" d="M383.797 171.145v12.797h-2.628v-12.797h2.628Zm3.938 0v2.065h-10.442v-2.065h10.442Zm4.895 12.973c-.738 0-1.4-.118-1.986-.352a4.353 4.353 0 0 1-1.494-.993 4.42 4.42 0 0 1-.932-1.468 4.935 4.935 0 0 1-.325-1.793v-.351c0-.721.103-1.38.308-1.978a4.65 4.65 0 0 1 .879-1.556 3.851 3.851 0 0 1 1.406-1.01c.551-.241 1.172-.361 1.863-.361.674 0 1.272.112 1.793.334a3.51 3.51 0 0 1 1.31.95c.357.41.627.902.808 1.476.182.568.273 1.201.273 1.899v1.054h-7.559v-1.687h5.071v-.194a2.19 2.19 0 0 0-.193-.94 1.492 1.492 0 0 0-.562-.668c-.252-.164-.575-.246-.967-.246-.334 0-.621.073-.862.22-.24.146-.436.351-.588.615a3.33 3.33 0 0 0-.334.931 5.883 5.883 0 0 0-.106 1.161v.351c0 .381.053.733.158 1.055.112.322.267.6.466.835.205.234.451.416.738.545.293.129.624.193.994.193.457 0 .881-.088 1.274-.264a2.756 2.756 0 0 0 1.028-.817l1.231 1.336a3.724 3.724 0 0 1-.818.826c-.339.264-.75.481-1.23.651-.481.164-1.028.246-1.644.246Zm9.273-1.978c.31 0 .586-.058.826-.176.24-.123.428-.293.563-.509a1.5 1.5 0 0 0 .219-.783h2.382a3.178 3.178 0 0 1-.536 1.785 3.694 3.694 0 0 1-1.415 1.221c-.592.293-1.254.44-1.986.44-.739 0-1.383-.123-1.934-.369a3.777 3.777 0 0 1-1.362-1.02 4.457 4.457 0 0 1-.818-1.529 6.341 6.341 0 0 1-.272-1.881v-.255c0-.674.091-1.301.272-1.881a4.35 4.35 0 0 1 .818-1.529c.363-.44.817-.782 1.362-1.029.545-.246 1.184-.369 1.916-.369.779 0 1.462.15 2.048.449a3.33 3.33 0 0 1 1.389 1.283c.339.551.512 1.204.518 1.96h-2.382a1.985 1.985 0 0 0-.202-.862 1.467 1.467 0 0 0-.545-.615c-.234-.158-.524-.237-.87-.237-.369 0-.671.079-.905.237a1.513 1.513 0 0 0-.545.633c-.129.264-.22.565-.273.905-.046.334-.07.686-.07 1.055v.255c0 .369.024.723.07 1.063.047.34.135.642.264.906.135.263.319.471.554.624.234.152.539.228.914.228Zm7.928-11.698v13.5h-2.532v-13.5h2.532Zm-.361 8.411h-.694a6.439 6.439 0 0 1 .264-1.828 4.469 4.469 0 0 1 .729-1.459 3.365 3.365 0 0 1 1.134-.967 3.19 3.19 0 0 1 1.476-.343c.469 0 .894.068 1.275.202.387.129.718.34.993.633.281.287.498.665.65 1.134.153.469.229 1.037.229 1.705v6.012h-2.549v-6.029c0-.422-.061-.753-.185-.994a1.014 1.014 0 0 0-.518-.518c-.223-.106-.498-.158-.826-.158-.364 0-.674.067-.932.202a1.598 1.598 0 0 0-.606.562c-.153.235-.264.51-.334.826a4.661 4.661 0 0 0-.106 1.02Zm10.459-2.391v7.48h-2.531v-9.51h2.373l.158 2.03Zm-.369 2.391h-.685c0-.703.09-1.336.272-1.898a4.318 4.318 0 0 1 .765-1.451 3.267 3.267 0 0 1 1.169-.922 3.518 3.518 0 0 1 1.529-.326c.445 0 .852.065 1.222.194.369.129.685.334.949.615.269.281.474.653.615 1.116.146.463.22 1.028.22 1.696v6.065h-2.549v-6.073c0-.422-.059-.75-.176-.985a.99.99 0 0 0-.518-.492c-.223-.1-.498-.149-.827-.149-.339 0-.635.067-.887.202a1.778 1.778 0 0 0-.616.562c-.158.235-.278.51-.36.826a4.062 4.062 0 0 0-.123 1.02Zm7.576.431v-.185c0-.697.1-1.339.299-1.925a4.458 4.458 0 0 1 .87-1.538c.381-.433.85-.77 1.406-1.011.557-.246 1.196-.369 1.916-.369.721 0 1.363.123 1.925.369a3.896 3.896 0 0 1 1.415 1.011c.387.434.68.947.879 1.538.199.586.299 1.228.299 1.925v.185c0 .691-.1 1.333-.299 1.924a4.486 4.486 0 0 1-.879 1.539c-.381.433-.849.77-1.406 1.01-.557.241-1.195.361-1.916.361-.721 0-1.362-.12-1.925-.361a3.994 3.994 0 0 1-1.415-1.01 4.566 4.566 0 0 1-.87-1.539 5.997 5.997 0 0 1-.299-1.924Zm2.531-.185v.185c0 .398.036.77.106 1.116.07.346.182.65.334.914.158.258.363.46.615.606.252.147.56.22.923.22.352 0 .653-.073.905-.22.252-.146.454-.348.607-.606.152-.264.263-.568.334-.914.076-.346.114-.718.114-1.116v-.185c0-.387-.038-.75-.114-1.09a2.907 2.907 0 0 0-.343-.914 1.715 1.715 0 0 0-.606-.633c-.252-.152-.557-.228-.915-.228-.357 0-.662.076-.914.228a1.807 1.807 0 0 0-.606.633 3.027 3.027 0 0 0-.334.914c-.07.34-.106.703-.106 1.09Zm10.706-8.657v13.5h-2.54v-13.5h2.54Zm1.687 8.842v-.185c0-.697.1-1.339.299-1.925a4.458 4.458 0 0 1 .87-1.538c.381-.433.85-.77 1.406-1.011.557-.246 1.196-.369 1.916-.369.721 0 1.363.123 1.925.369a3.896 3.896 0 0 1 1.415 1.011c.387.434.68.947.879 1.538.199.586.299 1.228.299 1.925v.185c0 .691-.1 1.333-.299 1.924a4.486 4.486 0 0 1-.879 1.539c-.381.433-.849.77-1.406 1.01-.557.241-1.195.361-1.916.361-.721 0-1.362-.12-1.925-.361a3.985 3.985 0 0 1-1.415-1.01 4.566 4.566 0 0 1-.87-1.539 5.997 5.997 0 0 1-.299-1.924Zm2.531-.185v.185c0 .398.035.77.106 1.116.07.346.181.65.334.914.158.258.363.46.615.606.252.147.56.22.923.22.351 0 .653-.073.905-.22.252-.146.454-.348.607-.606.152-.264.263-.568.334-.914.076-.346.114-.718.114-1.116v-.185c0-.387-.038-.75-.114-1.09a2.907 2.907 0 0 0-.343-.914 1.718 1.718 0 0 0-.607-.633c-.252-.152-.556-.228-.914-.228-.357 0-.662.076-.914.228a1.807 1.807 0 0 0-.606.633 3 3 0 0 0-.334.914c-.071.34-.106.703-.106 1.09Zm14.054-4.667h2.294v9.193c0 .868-.193 1.603-.58 2.207a3.574 3.574 0 0 1-1.6 1.379c-.685.317-1.482.475-2.39.475a5.52 5.52 0 0 1-1.266-.158 5.128 5.128 0 0 1-1.266-.492 3.359 3.359 0 0 1-1.002-.844l1.117-1.494c.293.34.632.603 1.019.791.387.193.815.29 1.283.29.457 0 .844-.085 1.161-.255.316-.164.559-.407.729-.73.17-.316.255-.7.255-1.151v-7.014l.246-2.197Zm-6.398 4.869v-.184c0-.727.087-1.386.263-1.978.182-.597.437-1.11.765-1.538a3.466 3.466 0 0 1 1.213-.993 3.588 3.588 0 0 1 1.608-.352c.633 0 1.163.118 1.591.352.428.234.779.568 1.055 1.002.275.428.489.934.641 1.52.159.58.282 1.216.369 1.908v.404a11.166 11.166 0 0 1-.395 1.846 5.688 5.688 0 0 1-.694 1.494c-.288.422-.645.75-1.073.984-.422.234-.925.352-1.511.352-.586 0-1.117-.12-1.591-.361a3.552 3.552 0 0 1-1.204-1.01 4.832 4.832 0 0 1-.774-1.53 6.633 6.633 0 0 1-.263-1.916Zm2.531-.184v.184c0 .393.038.759.114 1.099.076.34.193.642.352.905.164.258.366.46.606.607.246.14.536.211.87.211.463 0 .841-.097 1.134-.29.293-.2.513-.472.659-.818.147-.346.232-.744.255-1.195v-1.152a3.896 3.896 0 0 0-.149-.993 2.383 2.383 0 0 0-.369-.764 1.612 1.612 0 0 0-.616-.493 2.113 2.113 0 0 0-.896-.175c-.334 0-.624.076-.87.228a1.872 1.872 0 0 0-.607.607 3.062 3.062 0 0 0-.36.914 4.86 4.86 0 0 0-.123 1.125Zm10.951 3.753 2.522-8.438h2.716l-3.823 10.943c-.082.24-.193.498-.334.773a3.129 3.129 0 0 1-.554.782 2.576 2.576 0 0 1-.87.615c-.345.159-.77.238-1.274.238-.24 0-.437-.015-.589-.044-.152-.03-.334-.071-.545-.123v-1.855h.202c.07.006.138.009.202.009.334 0 .607-.038.818-.114.211-.076.381-.194.509-.352.129-.152.232-.351.308-.597l.712-1.837Zm-1.055-8.438 2.066 6.891.36 2.68-1.723.185-3.419-9.756h2.716Z"/><circle cx="245.186" cy="203.113" r="6.996" fill="#DBDBDB" stroke="#858585" stroke-width="3"/><circle cx="245.186" cy="345.847" r="6.996" fill="#DBDBDB" stroke="#858585" stroke-width="3"/><path stroke="#858585" stroke-width="5" d="m251.171 348.608 53.437 20.267"/><rect width="190" height="72" x="297.862" y="339.051" fill="#C0392B" rx="36"/><rect width="60" height="60" x="304.862" y="345.051" fill="#fff" rx="30"/><path fill="#000" d="m355.863 361.922-2.686.374a12.155 12.155 0 0 0-1.972-2.307l.727-2.645a.522.522 0 0 0-.266-.608l-3.961-1.944a.509.509 0 0 0-.636.151l-1.629 2.193a12.15 12.15 0 0 0-3.003-.203l-1.332-2.39a.506.506 0 0 0-.615-.27l-4.181 1.434a.513.513 0 0 0-.271.218.53.53 0 0 0-.073.343l.374 2.723a12.309 12.309 0 0 0-2.259 2.037l-2.609-.764a.507.507 0 0 0-.594.27l-1.957 4.017a.523.523 0 0 0 .148.634l2.163 1.653a12.097 12.097 0 0 0-.2 3.045l-2.363 1.351a.528.528 0 0 0-.23.618l1.414 4.246a.514.514 0 0 0 .554.348l2.685-.348a12.15 12.15 0 0 0 1.978 2.296l-.728 2.619a.527.527 0 0 0 .266.603l3.956 1.985a.509.509 0 0 0 .636-.151l1.634-2.192c.169.036.333.062.513.088.302.047.609.083.922.104.524.036 1.049.036 1.573 0l1.332 2.395c.045.081.11.147.188.194a.499.499 0 0 0 .258.071.42.42 0 0 0 .164-.031l4.182-1.434a.524.524 0 0 0 .343-.561l-.369-2.723a11.94 11.94 0 0 0 2.26-2.006l2.608.738a.51.51 0 0 0 .599-.27l1.958-4.012a.526.526 0 0 0-.149-.644l-2.172-1.647a12.6 12.6 0 0 0 .199-3.04l2.358-1.351a.52.52 0 0 0 .235-.619l-1.414-4.24a.514.514 0 0 0-.558-.348Zm-1.41 5.809a.522.522 0 0 0-.256.52 11.274 11.274 0 0 1-.225 3.393.518.518 0 0 0 .194.52l2.081 1.595-1.584 3.243-2.51-.712a.512.512 0 0 0-.513.166 11.096 11.096 0 0 1-2.541 2.24.52.52 0 0 0-.231.519l.359 2.599-3.377 1.153-1.261-2.302a.515.515 0 0 0-.451-.265h-.061a10.84 10.84 0 0 1-1.747 0c-.282 0-.564-.052-.841-.099-.277-.046-.512-.083-.758-.14a.51.51 0 0 0-.513.192l-1.573 2.11-3.202-1.585.697-2.551a.528.528 0 0 0-.159-.52 11.055 11.055 0 0 1-2.209-2.562.51.51 0 0 0-.512-.233l-2.562.363-1.153-3.435 2.27-1.299a.518.518 0 0 0 .261-.519 11.27 11.27 0 0 1 .215-3.378.523.523 0 0 0-.189-.52l-2.081-1.595 1.579-3.242 2.515.712a.513.513 0 0 0 .513-.167 11.087 11.087 0 0 1 2.521-2.239.523.523 0 0 0 .236-.52l-.359-2.598 3.377-1.159 1.281 2.307a.51.51 0 0 0 .512.26 11 11 0 0 1 3.346.223.51.51 0 0 0 .513-.192l1.573-2.11 3.197 1.606-.702 2.546a.52.52 0 0 0 .164.52 11.168 11.168 0 0 1 2.209 2.562.515.515 0 0 0 .512.234l2.562-.364 1.143 3.424-2.26 1.299Zm-8.598-4.105a6.078 6.078 0 0 0-6.789.878 6.25 6.25 0 0 0-1.896 3.076 6.322 6.322 0 0 0 .113 3.625 6.227 6.227 0 0 0 2.083 2.948 6.075 6.075 0 0 0 6.83.443 6.194 6.194 0 0 0 2.436-2.656 6.268 6.268 0 0 0-.882-6.839 6.139 6.139 0 0 0-1.895-1.475Zm1.855 7.868a5.17 5.17 0 0 1-1.61 1.941 5.076 5.076 0 0 1-2.324.938 5.05 5.05 0 0 1-2.485-.29 5.125 5.125 0 0 1-2.054-1.448 5.224 5.224 0 0 1-1.133-2.262 5.282 5.282 0 0 1 .058-2.536 5.225 5.225 0 0 1 1.235-2.206 5.124 5.124 0 0 1 2.118-1.35 5.006 5.006 0 0 1 3.899.265 5.178 5.178 0 0 1 2.554 2.987 5.264 5.264 0 0 1-.258 3.945v.016Zm-17.853 17.719a.513.513 0 0 0 .6-.27l1.291-2.645a.523.523 0 0 0-.154-.644l-1.337-1.04c.108-.604.148-1.22.118-1.834l1.465-.837a.51.51 0 0 0 .225-.267.528.528 0 0 0 .006-.351l-.933-2.801a.514.514 0 0 0-.553-.348l-1.665.239a7.682 7.682 0 0 0-1.194-1.382l.466-1.632a.523.523 0 0 0-.267-.608l-2.623-1.294a.508.508 0 0 0-.635.156l-1.025 1.357c-.595-.11-1.2-.15-1.804-.12l-.82-1.502a.514.514 0 0 0-.61-.239l-2.757.946a.518.518 0 0 0-.343.566l.231 1.689a7.972 7.972 0 0 0-1.363 1.206l-1.62-.458a.515.515 0 0 0-.599.271l-1.291 2.65a.522.522 0 0 0 .153.644l1.338 1.039a8.074 8.074 0 0 0-.118 1.83l-1.466.826a.525.525 0 0 0-.23.623l.932 2.796a.519.519 0 0 0 .569.348l1.666-.234c.344.506.745.97 1.194 1.383l-.451 1.642a.524.524 0 0 0 .266.602l2.608 1.31a.509.509 0 0 0 .636-.151l1.024-1.356a8.067 8.067 0 0 0 1.809.119l.825 1.487a.52.52 0 0 0 .446.265.514.514 0 0 0 .164-.032l2.731-.956a.508.508 0 0 0 .271-.218.528.528 0 0 0 .073-.343l-.231-1.689a8.246 8.246 0 0 0 1.363-1.21l1.619.467Zm-2.177-1.377a7.214 7.214 0 0 1-1.625 1.44.516.516 0 0 0-.23.519l.215 1.559-1.947.686-.79-1.393a.51.51 0 0 0-.445-.265h-.046a7.146 7.146 0 0 1-2.153-.145.506.506 0 0 0-.512.192l-.958 1.258-1.855-.925.425-1.559a.527.527 0 0 0-.164-.52 7.238 7.238 0 0 1-1.419-1.647.514.514 0 0 0-.513-.239l-1.563.223-.65-1.964 1.373-.785a.523.523 0 0 0 .256-.519 7.409 7.409 0 0 1 .144-2.183.53.53 0 0 0-.19-.519l-1.261-.956.918-1.876 1.537.431a.509.509 0 0 0 .512-.166 7.1 7.1 0 0 1 1.625-1.44.516.516 0 0 0 .235-.519l-.22-1.559 1.958-.671.773 1.398a.515.515 0 0 0 .513.26 6.983 6.983 0 0 1 2.152.146.506.506 0 0 0 .512-.193l.948-1.278 1.855.93-.425 1.559a.523.523 0 0 0 .164.52 7.217 7.217 0 0 1 1.419 1.647.515.515 0 0 0 .513.234l1.537-.218.661 1.985-1.373.784a.523.523 0 0 0-.256.52c.06.73.011 1.466-.144 2.182a.523.523 0 0 0 .19.52l1.26.961-.907 1.845-1.537-.426a.513.513 0 0 0-.28.009.514.514 0 0 0-.232.157Zm-3.587-8.511a4.17 4.17 0 0 0-5.138 1.153 4.323 4.323 0 0 0-.029 5.336 4.18 4.18 0 0 0 3.291 1.627 4.217 4.217 0 0 0 3.356-1.674 4.33 4.33 0 0 0 .309-4.745 4.242 4.242 0 0 0-1.789-1.697Zm.994 5.269a3.22 3.22 0 0 1-1.84 1.63 3.162 3.162 0 0 1-2.439-.16 3.223 3.223 0 0 1-1.472-1.523 3.282 3.282 0 0 1-.22-2.121 3.247 3.247 0 0 1 1.126-1.801 3.168 3.168 0 0 1 1.985-.702c.49 0 .972.115 1.41.338.376.187.713.448.99.768a3.245 3.245 0 0 1 .785 2.35 3.286 3.286 0 0 1-.325 1.221Zm2.142 9.873a.5.5 0 0 1 .106-.172.501.501 0 0 1 .357-.163.512.512 0 0 1 .198.033 19.994 19.994 0 0 0 13.861.208.496.496 0 0 1 .394.022.507.507 0 0 1 .261.3.525.525 0 0 1-.317.66 21.023 21.023 0 0 1-14.568-.218.524.524 0 0 1-.308-.655l.016-.015Zm17.519-.842a.523.523 0 0 1-.23.696l-.415.203a.512.512 0 0 1-.544-.062.521.521 0 0 1-.138-.638.518.518 0 0 1 .246-.241l.395-.192a.508.508 0 0 1 .671.249l.015-.015Zm8.23-9.094-3.352 1.206a.512.512 0 0 1-.681-.521.53.53 0 0 1 .171-.358.496.496 0 0 1 .172-.103l4.474-1.606a.504.504 0 0 1 .271-.062.51.51 0 0 1 .231.041c.122.06.216.166.261.296l1.624 4.677a.525.525 0 0 1-.286.639.496.496 0 0 1-.465-.065.517.517 0 0 1-.186-.252l-1.24-3.538a21.373 21.373 0 0 1-7.333 8.22.507.507 0 0 1-.712-.15.521.521 0 0 1 .153-.718 20.4 20.4 0 0 0 6.898-7.706Zm-41.071-17.163a.522.522 0 0 1 .21-.664.511.511 0 0 1 .672.144l1.726 2.978a21.6 21.6 0 0 1 7.537-11.713 21.081 21.081 0 0 1 13.037-4.562.518.518 0 0 1 .513.519c0 .138-.054.27-.151.368a.51.51 0 0 1-.362.152 20.068 20.068 0 0 0-12.526 4.44 20.56 20.56 0 0 0-7.125 11.352l3.31-1.975a.507.507 0 0 1 .681.2.525.525 0 0 1-.169.699l-4.186 2.505a.51.51 0 0 1-.261.072.457.457 0 0 1-.128 0 .509.509 0 0 1-.313-.239l-2.465-4.276Z"/><path fill="#fff" d="M386.16 376.489h-3.261v-2.057h3.261c.504 0 .914-.082 1.23-.246.317-.17.548-.404.694-.703a2.26 2.26 0 0 0 .22-1.011c0-.38-.073-.735-.22-1.063a1.768 1.768 0 0 0-.694-.791c-.316-.199-.726-.299-1.23-.299h-2.347v10.732h-2.637v-12.797h4.984c1.002 0 1.86.181 2.575.545.721.357 1.271.852 1.652 1.485.381.633.571 1.356.571 2.171 0 .826-.19 1.541-.571 2.144-.381.604-.931 1.07-1.652 1.398-.715.328-1.573.492-2.575.492Zm8.991-2.874v7.436h-2.531v-9.51h2.381l.15 2.074Zm2.865-2.136-.044 2.347a6.013 6.013 0 0 0-.448-.044 4.432 4.432 0 0 0-.466-.026c-.357 0-.668.046-.932.14-.257.088-.474.22-.65.396-.17.176-.299.389-.387.641a3.128 3.128 0 0 0-.14.862l-.51-.159c0-.615.061-1.18.185-1.696.123-.521.301-.975.536-1.362.24-.387.533-.686.879-.897a2.228 2.228 0 0 1 1.186-.316c.141 0 .284.012.431.035.146.018.266.044.36.079Zm.527 4.913v-.184c0-.698.1-1.339.299-1.925.2-.592.49-1.105.87-1.538.381-.434.85-.771 1.407-1.011.556-.246 1.195-.369 1.916-.369.72 0 1.362.123 1.924.369.563.24 1.035.577 1.416 1.011.386.433.679.946.878 1.538.2.586.299 1.227.299 1.925v.184c0 .692-.099 1.333-.299 1.925a4.487 4.487 0 0 1-.878 1.538c-.381.434-.85.771-1.407 1.011-.556.24-1.195.36-1.916.36-.72 0-1.362-.12-1.925-.36a3.984 3.984 0 0 1-1.415-1.011 4.586 4.586 0 0 1-.87-1.538 6.003 6.003 0 0 1-.299-1.925Zm2.532-.184v.184c0 .399.035.771.105 1.117.07.345.182.65.334.914.158.257.363.46.615.606.252.147.56.22.923.22.352 0 .654-.073.906-.22.251-.146.454-.349.606-.606.152-.264.264-.569.334-.914a5.2 5.2 0 0 0 .114-1.117v-.184c0-.387-.038-.75-.114-1.09a2.874 2.874 0 0 0-.343-.914 1.692 1.692 0 0 0-.606-.633c-.252-.152-.557-.228-.914-.228-.358 0-.662.076-.914.228a1.792 1.792 0 0 0-.607.633 3.017 3.017 0 0 0-.334.914c-.07.34-.105.703-.105 1.09Zm11.962 3.041c.31 0 .586-.059.826-.176a1.39 1.39 0 0 0 .562-.51c.141-.222.214-.483.22-.782h2.382a3.172 3.172 0 0 1-.536 1.784 3.695 3.695 0 0 1-1.415 1.222c-.592.293-1.254.439-1.987.439-.738 0-1.382-.123-1.933-.369a3.787 3.787 0 0 1-1.363-1.019 4.486 4.486 0 0 1-.817-1.53 6.309 6.309 0 0 1-.272-1.881v-.254c0-.674.09-1.301.272-1.881a4.378 4.378 0 0 1 .817-1.53 3.742 3.742 0 0 1 1.363-1.028c.545-.246 1.183-.369 1.916-.369.779 0 1.462.149 2.048.448a3.347 3.347 0 0 1 1.388 1.283c.34.551.513 1.205.519 1.96h-2.382a1.984 1.984 0 0 0-.202-.861 1.455 1.455 0 0 0-.545-.615c-.234-.158-.524-.237-.87-.237-.369 0-.671.079-.905.237a1.507 1.507 0 0 0-.545.633c-.129.263-.22.565-.273.905-.047.334-.07.685-.07 1.055v.254c0 .37.023.724.07 1.064.047.34.135.642.264.905.135.264.319.472.554.624.234.153.539.229.914.229Zm9.835 1.977c-.739 0-1.401-.117-1.987-.351a4.367 4.367 0 0 1-1.494-.993 4.43 4.43 0 0 1-.932-1.468 4.96 4.96 0 0 1-.325-1.793v-.352c0-.72.103-1.38.308-1.977a4.65 4.65 0 0 1 .879-1.556 3.874 3.874 0 0 1 1.406-1.011c.551-.24 1.172-.36 1.863-.36.674 0 1.272.111 1.793.334a3.52 3.52 0 0 1 1.31.949c.357.41.627.903.808 1.477.182.568.273 1.201.273 1.898v1.055h-7.559v-1.688h5.072v-.193c0-.352-.065-.665-.194-.94a1.487 1.487 0 0 0-.562-.668c-.252-.164-.574-.246-.967-.246-.334 0-.621.073-.861.219a1.7 1.7 0 0 0-.589.615 3.338 3.338 0 0 0-.334.932 5.873 5.873 0 0 0-.106 1.16v.352c0 .381.053.732.159 1.055.111.322.266.6.465.834.205.235.452.417.739.545.293.129.624.194.993.194.457 0 .882-.088 1.274-.264a2.77 2.77 0 0 0 1.029-.817l1.23 1.336a3.761 3.761 0 0 1-.817.826c-.34.264-.75.48-1.231.65-.48.164-1.028.246-1.643.246Zm10.485-2.803a.828.828 0 0 0-.158-.493c-.106-.146-.302-.281-.589-.404-.281-.129-.689-.246-1.222-.351a9.65 9.65 0 0 1-1.345-.396 4.652 4.652 0 0 1-1.072-.589 2.557 2.557 0 0 1-.703-.808 2.25 2.25 0 0 1-.255-1.081c0-.399.085-.774.255-1.125.176-.352.425-.663.747-.932a3.559 3.559 0 0 1 1.195-.642 5.051 5.051 0 0 1 1.6-.237c.826 0 1.535.132 2.127.395.598.264 1.055.627 1.371 1.09.322.457.484.979.484 1.565h-2.532c0-.246-.052-.466-.158-.659-.1-.2-.258-.355-.475-.466-.21-.117-.486-.176-.826-.176-.281 0-.524.05-.729.149a1.121 1.121 0 0 0-.475.387.933.933 0 0 0-.158.527c0 .147.029.279.088.396a.965.965 0 0 0 .307.308c.141.093.323.181.545.263.229.076.51.147.844.211a9.69 9.69 0 0 1 1.837.554c.539.223.967.527 1.283.914.317.381.475.882.475 1.503 0 .422-.094.809-.281 1.16a2.801 2.801 0 0 1-.809.923 4.08 4.08 0 0 1-1.266.606 5.898 5.898 0 0 1-1.643.211c-.885 0-1.635-.158-2.25-.474-.61-.317-1.072-.718-1.389-1.204-.31-.493-.466-.996-.466-1.512h2.4c.011.346.099.624.263.835.17.211.384.363.642.457.264.094.548.141.853.141.328 0 .6-.044.817-.132.217-.094.381-.217.492-.369a.895.895 0 0 0 .176-.545Zm9.246 0a.828.828 0 0 0-.158-.493c-.106-.146-.302-.281-.589-.404-.281-.129-.689-.246-1.222-.351a9.635 9.635 0 0 1-1.344-.396 4.639 4.639 0 0 1-1.073-.589 2.557 2.557 0 0 1-.703-.808 2.25 2.25 0 0 1-.255-1.081c0-.399.085-.774.255-1.125.176-.352.425-.663.747-.932a3.554 3.554 0 0 1 1.196-.642 5.04 5.04 0 0 1 1.599-.237c.826 0 1.535.132 2.127.395.598.264 1.055.627 1.371 1.09.322.457.484.979.484 1.565h-2.532c0-.246-.052-.466-.158-.659a1.039 1.039 0 0 0-.474-.466c-.211-.117-.487-.176-.827-.176-.281 0-.524.05-.729.149a1.127 1.127 0 0 0-.475.387.933.933 0 0 0-.158.527c0 .147.029.279.088.396a.959.959 0 0 0 .308.308c.14.093.322.181.544.263.229.076.51.147.844.211a9.69 9.69 0 0 1 1.837.554c.539.223.967.527 1.283.914.317.381.475.882.475 1.503 0 .422-.094.809-.281 1.16a2.801 2.801 0 0 1-.809.923c-.351.258-.773.46-1.266.606a5.898 5.898 0 0 1-1.643.211c-.885 0-1.635-.158-2.25-.474-.609-.317-1.072-.718-1.389-1.204-.31-.493-.466-.996-.466-1.512h2.4c.012.346.099.624.264.835.169.211.383.363.641.457.264.094.548.141.853.141.328 0 .6-.044.817-.132.217-.094.381-.217.492-.369a.895.895 0 0 0 .176-.545Zm8.481 2.803c-.738 0-1.4-.117-1.986-.351a4.367 4.367 0 0 1-1.494-.993 4.43 4.43 0 0 1-.932-1.468 4.96 4.96 0 0 1-.325-1.793v-.352c0-.72.103-1.38.308-1.977a4.65 4.65 0 0 1 .879-1.556 3.865 3.865 0 0 1 1.406-1.011c.551-.24 1.172-.36 1.863-.36.674 0 1.272.111 1.793.334a3.52 3.52 0 0 1 1.31.949c.357.41.627.903.808 1.477.182.568.273 1.201.273 1.898v1.055h-7.559v-1.688h5.072v-.193c0-.352-.065-.665-.194-.94a1.487 1.487 0 0 0-.562-.668c-.252-.164-.575-.246-.967-.246-.334 0-.621.073-.861.219a1.7 1.7 0 0 0-.589.615 3.338 3.338 0 0 0-.334.932 5.873 5.873 0 0 0-.106 1.16v.352c0 .381.053.732.158 1.055.112.322.267.6.466.834.205.235.451.417.739.545.292.129.624.194.993.194.457 0 .882-.088 1.274-.264a2.758 2.758 0 0 0 1.028-.817l1.231 1.336a3.745 3.745 0 0 1-.818.826 4.35 4.35 0 0 1-1.23.65c-.48.164-1.028.246-1.644.246Zm10.486-2.803a.828.828 0 0 0-.158-.493c-.106-.146-.302-.281-.589-.404-.281-.129-.689-.246-1.222-.351a9.65 9.65 0 0 1-1.345-.396 4.652 4.652 0 0 1-1.072-.589 2.557 2.557 0 0 1-.703-.808 2.25 2.25 0 0 1-.255-1.081c0-.399.085-.774.255-1.125.176-.352.425-.663.747-.932a3.559 3.559 0 0 1 1.195-.642 5.051 5.051 0 0 1 1.6-.237c.826 0 1.535.132 2.127.395.598.264 1.055.627 1.371 1.09.322.457.483.979.483 1.565h-2.531c0-.246-.053-.466-.158-.659-.1-.2-.258-.355-.475-.466-.211-.117-.486-.176-.826-.176-.281 0-.524.05-.729.149a1.121 1.121 0 0 0-.475.387.933.933 0 0 0-.158.527c0 .147.029.279.088.396a.965.965 0 0 0 .307.308c.141.093.323.181.545.263.229.076.51.147.844.211a9.69 9.69 0 0 1 1.837.554c.539.223.967.527 1.283.914.317.381.475.882.475 1.503 0 .422-.094.809-.281 1.16a2.813 2.813 0 0 1-.809.923 4.09 4.09 0 0 1-1.266.606 5.898 5.898 0 0 1-1.643.211c-.885 0-1.635-.158-2.25-.474-.61-.317-1.073-.718-1.389-1.204-.31-.493-.466-.996-.466-1.512h2.4c.011.346.099.624.263.835.17.211.384.363.642.457.264.094.548.141.852.141.329 0 .601-.044.818-.132.217-.094.381-.217.492-.369a.895.895 0 0 0 .176-.545Z"/></svg>