<svg xmlns="http://www.w3.org/2000/svg" xmlns:xlink="http://www.w3.org/1999/xlink" version="1.1" x="0px" y="0px" viewBox="0 0 512 640" style="enable-background:new 0 0 512 512;" xml:space="preserve"><style type="text/css">
	.st0{fill-rule:evenodd;clip-rule:evenodd;}
</style><path class="st0" d="M103.072,375.898l86.073-65.103c12.476-9.437,28.377-10.867,42.344-3.791l77.434,39.23  c16.04,8.127,21.357,25.546,20.734,43.115l135.192-67.695c0.099-0.049,0.198-0.094,0.299-0.135l-0.002-0.006  c14.403-5.813,27.521-3.019,32.772,9.202c6.246,14.533-2.013,34.017-17.358,44.737c-0.062,0.043-0.125,0.085-0.188,0.124  l0.001,0.001L366.62,445.741c-42.7,26.338-61.233,21.261-92.923,12.579c-15.504-4.247-34.297-9.396-61.051-11.89l-0.015-0.002  l0,0.002c-6.866-0.665-15.166,2.525-21.772,5.95l17.648,15.375c1.665,1.45,1.84,3.975,0.391,5.64l-21.971,25.224  c-0.79,0.908-1.9,1.373-3.016,1.373v0.002h-73.475c-15.982,0-29.864-7-39.379-19.859l-58.287-78.77  c-1.136-1.532-1.009-3.612,0.195-4.993l-0.007-0.007l46.397-53.253c1.45-1.665,3.975-1.84,5.64-0.391L103.072,375.898  L103.072,375.898z M383.494,133.728c3.723-3.723,9.38,1.933,5.656,5.656l-4.52,4.52c14.866,29.744-6.75,65.212-40.351,65.212  c-24.898,0-45.084-20.186-45.084-45.084c0-24.899,20.185-45.084,45.084-45.084c14.577,0,27.706,6.938,36.023,17.972L383.494,133.728  L383.494,133.728z M378.593,149.942l-27.217,27.217c-4.396,4.395-11.549,4.395-15.945,0l-12.174-12.174  c-3.723-3.724,1.933-9.38,5.656-5.656l12.174,12.174c1.271,1.271,3.362,1.271,4.632,0l28.859-28.859  c-13.257-18.749-40.233-21.123-56.521-4.835c-14.482,14.482-14.482,37.964,0,52.446c14.482,14.482,37.963,14.482,52.445,0  C381.004,179.752,384.314,163.86,378.593,149.942L378.593,149.942z M360.516,99.921v-7.408c0-3.764-3.06-6.824-6.824-6.824h-18.824  c-3.764,0-6.824,3.061-6.824,6.824v7.408c-6.419,1.603-12.489,4.131-18.15,7.535l-5.249-5.25l-0.008,0.008  c-2.545-2.639-6.956-2.695-9.643-0.008l-13.312,13.312l0.008,0.008c-2.524,2.434-2.704,6.456-0.304,9.31l5.547,5.581  c-3.405,5.662-5.932,11.729-7.535,18.15h-7.406c-3.743,0-6.824,3.063-6.824,6.825v18.824c0,3.747,3.062,6.824,6.824,6.824h7.405  c1.603,6.418,4.131,12.492,7.535,18.152l-5.247,5.247c-2.663,2.663-2.662,6.989-0.001,9.651l13.311,13.311l0.008-0.008  c2.562,2.555,6.478,2.688,9.313,0.304l5.581-5.546c5.661,3.405,11.729,5.932,18.149,7.535v7.407c0,3.764,3.06,6.825,6.824,6.825  h18.824c3.764,0,6.824-3.061,6.824-6.825v-7.405c6.419-1.603,12.492-4.131,18.152-7.535l5.247,5.247  c2.662,2.662,6.989,2.663,9.651,0l13.31-13.31c2.663-2.662,2.662-6.989,0-9.65l-5.251-5.251c3.404-5.657,5.933-11.732,7.535-18.149  h7.408c1.882,0,3.589-0.766,4.824-2.001l-0.008-0.008c1.231-1.187,2.009-2.979,2.009-4.816v-18.824c0-1.882-0.766-3.589-2.001-4.824  l-0.008,0.008c-1.243-1.24-2.948-2.009-4.816-2.009h-7.405c-1.602-6.42-4.131-12.49-7.535-18.152l5.249-5.249l-0.008-0.008  c2.524-2.434,2.704-6.456,0.305-9.31l-13.608-13.643l-0.008,0.008c-2.435-2.525-6.451-2.705-9.31-0.306l-5.584,5.548  C373.006,104.053,366.934,101.524,360.516,99.921L360.516,99.921z M366.804,110.385c-2.89-1.198-5.902-2.174-9.015-2.904  c-3.102-0.728-5.273-3.472-5.273-6.64v-7.152h-16.473v7.152c0,3.168-2.171,5.912-5.273,6.64c-6.197,1.454-12.133,3.924-17.482,7.24  c-2.717,1.685-6.168,1.274-8.408-0.966l-5.062-5.062l-11.649,11.649l5.061,5.062l-0.008,0.008c2.253,2.257,2.659,5.683,0.973,8.4  c-3.316,5.346-5.788,11.289-7.241,17.482c-0.722,3.078-3.467,5.273-6.64,5.273h-7.15v16.474h7.148c3.166,0,5.913,2.169,6.641,5.273  c1.453,6.192,3.926,12.14,7.241,17.484c1.676,2.703,1.273,6.169-0.965,8.408l-5.06,5.06l11.649,11.649l5.062-5.063  c2.24-2.24,5.69-2.65,8.408-0.965c5.352,3.318,11.281,5.786,17.481,7.241c3.103,0.728,5.273,3.474,5.273,6.64v7.151h16.473v-7.148  c0-3.167,2.17-5.912,5.273-6.641c6.193-1.453,12.139-3.925,17.484-7.24c2.702-1.676,6.169-1.273,8.408,0.965l5.06,5.06  l11.649-11.649l-5.062-5.063c-2.24-2.24-2.65-5.691-0.966-8.408c3.316-5.349,5.786-11.284,7.241-17.481  c0.364-1.55,1.224-2.864,2.397-3.793l0.006,0.008c1.146-0.937,2.694-1.488,4.237-1.488h7.151v-16.474h-7.148  c-1.584,0-3.061-0.543-4.244-1.48l0.006-0.008c-1.18-0.938-2.043-2.249-2.403-3.785c-1.454-6.195-3.925-12.137-7.241-17.484  c-1.685-2.717-1.274-6.168,0.965-8.408l5.06-5.06l-11.649-11.649l-5.062,5.062l-0.008-0.008c-2.259,2.254-5.682,2.659-8.4,0.974  C372.612,113.073,369.782,111.62,366.804,110.385L366.804,110.385z M456.353,120.995L344.279,57.252l-112.073,63.743  c14.816,67.624,55.043,127.099,112.074,166.283C401.31,248.093,441.537,188.618,456.353,120.995L456.353,120.995z M346.248,49.195  c-1.289-0.731-2.813-0.667-4.003,0.037l-116.52,66.272c-1.545,0.877-2.281,2.63-1.937,4.281h-0.001  c14.884,71.599,57.584,134.893,118.274,175.628c1.413,0.947,3.213,0.869,4.524-0.059c30.366-20.445,56.206-46.444,76.313-76.302  c20.071-29.805,34.43-63.457,41.874-99.267c0.371-1.784-0.513-3.538-2.05-4.345L346.248,49.195L346.248,49.195z M499.897,102.983  c0.294-1.621-0.443-3.321-1.956-4.181l-151.626-86.24c-1.19-0.704-2.714-0.769-4.003-0.037L190.619,98.802l0.001,0.003  c-1.362,0.774-2.195,2.316-1.986,3.966c6.278,48.695,23.759,93.876,49.773,132.873c26.622,39.907,62.182,73.341,103.818,97.438  c1.204,0.721,2.753,0.784,4.054,0.031C429.974,284.67,487.334,199.904,499.897,102.983L499.897,102.983z M443.527,231.206  c24.875-37.289,41.74-80.375,48.138-126.796L344.279,20.583L196.894,104.41c12.765,92.613,67.616,173.668,147.386,220.629  C384.029,301.638,417.997,269.475,443.527,231.206L443.527,231.206z M117.196,450.283c-1.44,1.799-2.563,3.198-3.044,5.92  c-1.925,10.894,9.86,17.878,18.347,12.168c8.678-5.839,6.124-19.493-4.374-21.569C124.039,445.994,119.937,447.396,117.196,450.283  L117.196,450.283z M108.811,448.191c-1.137,1.877-2.174,4.414-2.541,6.691c-2.924,18.132,16.563,29.604,30.667,20.113  c4.177-2.811,7.615-7.586,8.472-12.901c2.966-18.372-17.062-29.863-31.156-19.774L99.132,427.2c-3.723-3.723-9.38,1.933-5.656,5.656  L108.811,448.191L108.811,448.191z M184.446,446.794c8.889-4.986,19.383-9.226,28.934-8.302v0.001  c27.447,2.56,46.606,7.809,62.411,12.139c29.588,8.106,46.892,12.846,86.642-11.672l113.666-70.111  c11.614-7.654,19.233-23.898,14.476-34.978c-1.038-2.417-2.65-4.383-4.81-5.647c-3.893-2.279-9.755-2.474-17.572,0.664  l-140.992,70.599c-0.058,0.036-0.118,0.07-0.178,0.103c-12.782,7.851-39.524-1.179-56.319-6.852  c-4.995-1.687-9.044-3.055-11.224-3.477c-5.17-0.995-3.654-8.835,1.5-7.844c2.646,0.513,6.949,1.966,12.255,3.758  c14.709,4.968,37.733,12.743,48.141,8.364c1.495-15.836-1.681-32.902-16.049-40.182l-77.434-39.23  c-11.279-5.714-23.842-4.595-33.938,3.041l-84.732,64.089L184.446,446.794L184.446,446.794z M200.24,471.159L62.756,351.378  l-41.667,47.825l56.373,76.183c8.013,10.829,19.486,16.609,32.972,16.609h71.657L200.24,471.159z"/></svg>