<svg xmlns="http://www.w3.org/2000/svg" data-name="Layer 1" viewBox="0 0 100 125" x="0px" y="0px"><defs><style>.cls-1{fill-rule:evenodd;}</style></defs><title>a</title><path class="cls-1" d="M71.853,49.388l1.49-1.319a.851.851,0,1,1,1.128,1.275L72.831,50.8a7.934,7.934,0,0,1,.966,3.755l0,0h0a7.964,7.964,0,0,1-7.913,8.01v0a7.962,7.962,0,0,1-8.01-7.912h0a7.96,7.96,0,0,1,13.975-5.26Zm-9,4.991A.852.852,0,0,1,64.076,53.2l1.6,1.663,4.9-4.342a6.257,6.257,0,0,0-11,4.127l0,0h0a6.259,6.259,0,0,0,6.3,6.21l0,0v0a6.26,6.26,0,0,0,6.21-6.3l0,0h0a6.216,6.216,0,0,0-.581-2.591l-5.3,4.69a.852.852,0,0,1-1.2-.023l-2.162-2.252ZM57.2,21.223a.691.691,0,0,0-.977.976.691.691,0,0,0,.977-.976Zm.366,2.731v1.13a.855.855,0,0,1-1.709,0v-1.13a2.4,2.4,0,1,1,1.709,0ZM63.5,29.4H49.921V26.843c.34-.172.7-.345.7-.878V21.084h0c0-.524-.355-.7-.7-.9V17.6H63.5v2.588c-.339.194-.7.368-.7.9v4.881h0c0,.522.348.7.7.878V29.4ZM59.876,15.89V13.675h0a2.452,2.452,0,0,0-2.44-2.437v0H55.978v0a2.452,2.452,0,0,0-2.44,2.437h0V15.89Zm-8.044,0V13.675h0a4.151,4.151,0,0,1,4.143-4.146v0h1.461v0a4.15,4.15,0,0,1,4.142,4.146h0V15.89h2.766a.854.854,0,0,1,.854.854v3.938h0c0,.524-.355.7-.7.9v3.862c.34.172.7.345.7.878v3.938a.854.854,0,0,1-.854.855H49.066a.854.854,0,0,1-.854-.855V26.319h0c0-.522.347-.7.7-.878V21.579c-.339-.194-.7-.368-.7-.9V16.744a.854.854,0,0,1,.854-.854ZM33.392,78.212a.855.855,0,0,1,0-1.709H56.725a.855.855,0,0,1,0,1.709Zm0-7.66a.855.855,0,0,1,0-1.71h13.3a.855.855,0,0,1,0,1.71Zm0,3.83a.855.855,0,0,1,0-1.709H52.45a.855.855,0,0,1,0,1.709Zm38.989-6.476A41.036,41.036,0,0,0,83.256,44.451a.854.854,0,0,0-.755-.941,44.472,44.472,0,0,1-16.476-5.017.854.854,0,0,0-.807,0,44.5,44.5,0,0,1-16.46,5.014.851.851,0,0,0-.763.941h0a40.887,40.887,0,0,0,2.688,10.631.852.852,0,1,0,1.582-.635A39.321,39.321,0,0,1,49.8,45.109a46.187,46.187,0,0,0,15.83-4.9,46.175,46.175,0,0,0,15.829,4.9A39.32,39.32,0,0,1,71.139,66.737a.853.853,0,0,0,1.242,1.169ZM53.042,59.99A41.268,41.268,0,0,0,65.134,73.354a.852.852,0,0,0,1-.011A43.79,43.79,0,0,0,69.94,70.3.854.854,0,0,0,68.8,69.029a37.7,37.7,0,0,1-3.173,2.578,39.391,39.391,0,0,1-11.1-12.459.852.852,0,0,0-1.482.842ZM27.922,47.915h-8.8v8.8h8.8v-8.8ZM18.27,46.206H28.777a.854.854,0,0,1,.854.854V57.567a.854.854,0,0,1-.854.854H18.27a.854.854,0,0,1-.854-.854V47.06a.854.854,0,0,1,.854-.854Zm2.257,6.274a.853.853,0,0,1,1.3-1.1l1.043,1.237,2.4-2.361a.852.852,0,0,1,1.2,1.215l-3.033,2.984a.852.852,0,0,1-1.271-.034L20.527,52.48Zm7.4,16.649h-8.8v8.8h8.8v-8.8ZM18.27,67.42H28.777a.854.854,0,0,1,.854.854V78.781a.854.854,0,0,1-.854.854H18.27a.855.855,0,0,1-.854-.854V68.274a.854.854,0,0,1,.854-.854Zm2.257,6.274a.853.853,0,0,1,1.3-1.1l1.043,1.237,2.4-2.361a.852.852,0,0,1,1.2,1.215l-3.033,2.984a.852.852,0,0,1-1.271-.034l-1.636-1.939Zm7.4-46.993h-8.8v8.8h8.8V26.7ZM18.27,24.992H28.777a.854.854,0,0,1,.854.855V36.353a.854.854,0,0,1-.854.855H18.27a.855.855,0,0,1-.854-.855V25.847a.855.855,0,0,1,.854-.855Zm2.257,6.274a.853.853,0,1,1,1.3-1.1L22.872,31.4l2.4-2.361a.852.852,0,0,1,1.2,1.215l-3.033,2.984a.852.852,0,0,1-1.271-.034l-1.636-1.939Zm49.266,4.479V7.1H25.935V18.246a.855.855,0,0,1-.855.855H13.934V86.032H69.793V75.6q-1.778,1.4-3.689,2.637a.851.851,0,0,1-.94.012A47.594,47.594,0,0,1,49.755,62.09a47.093,47.093,0,0,1-6.28-21.332.851.851,0,0,1,.818-.891,45.45,45.45,0,0,0,20.9-6.054.854.854,0,0,1,.863-.005q1.819,1.051,3.741,1.937ZM24.226,8.308v9.084H15.142l9.084-9.084ZM20.688,87.741V92.9H76.547V69.094A47.671,47.671,0,0,1,71.5,74.188v12.7a.855.855,0,0,1-.855.855ZM76.547,38.227V13.968H71.5V36.49a45.54,45.54,0,0,0,5.045,1.737Zm.719,1.952-1.609-.435a46.923,46.923,0,0,1-10.032-4.217,47.106,47.106,0,0,1-20.4,6,45.626,45.626,0,0,0,20.4,34.99,45.757,45.757,0,0,0,4.431-3.334.618.618,0,0,1,.078-.066,45.991,45.991,0,0,0,6.455-6.777.852.852,0,0,1,.346-.453,45.465,45.465,0,0,0,9.087-24.36,47.288,47.288,0,0,1-8.756-1.347ZM71.5,12.259V6.245a.854.854,0,0,0-.855-.854H25.08a.851.851,0,0,0-.609.255L12.48,17.637a.847.847,0,0,0-.255.609v68.64a.854.854,0,0,0,.854.855h5.9v6.014a.854.854,0,0,0,.855.854H77.4a.854.854,0,0,0,.855-.854V66.965a47.2,47.2,0,0,0,9.517-26.207.852.852,0,0,0-.811-.891,45.606,45.606,0,0,1-8.706-1.2V13.114a.855.855,0,0,0-.855-.855ZM33.392,49.338a.855.855,0,0,1,0-1.709h7.55a.855.855,0,0,1,0,1.709Zm0,7.657a.851.851,0,0,1,0-1.7l9.323.009a.851.851,0,0,1,0,1.7L33.392,57Zm0-3.83a.852.852,0,0,1,0-1.7l8.237-.025a.851.851,0,1,1,0,1.7l-8.237.026Zm0-17.38a.855.855,0,0,1,0-1.709H48.953a.855.855,0,0,1,0,1.709Zm0-7.661a.855.855,0,0,1,0-1.709H44.566a.855.855,0,0,1,0,1.709Zm0,3.83a.855.855,0,0,1,0-1.709H44.566a.855.855,0,0,1,0,1.709Z"/></svg>