<svg xmlns="http://www.w3.org/2000/svg" data-name="Layer 1" viewBox="0 0 95 118.75" x="0px" y="0px"><path d="M87.744,11.263H40.111a6.264,6.264,0,0,0-6.257,6.257v4.861a7.162,7.162,0,0,0-3.089-1.213H30.7c-2.283,0-7.417,4.306-8.007,4.808-2.315,1.967-6.338,5.786-7.265,9.256-.214.8-.588,1.819-.984,2.9-1.047,2.858-2.351,6.415-1.929,9.248a1.278,1.278,0,0,0,.152.441l.893,1.566a23.609,23.609,0,0,0-3.48,1.8c-1.06.66-3.142,4.494-3.988,6.112A70.932,70.932,0,0,0,1.453,68.2a9.46,9.46,0,0,0,.923,7.813A10.591,10.591,0,0,0,8.312,80.65v.388a2.653,2.653,0,0,0,2.6,2.7H50.618a2.653,2.653,0,0,0,2.6-2.7V80.63a10.607,10.607,0,0,0,5.891-4.654,9.473,9.473,0,0,0,.9-7.777,70.538,70.538,0,0,0-4.531-10.7H87.744A6.264,6.264,0,0,0,94,51.245V17.52A6.264,6.264,0,0,0,87.744,11.263ZM16.819,39c.416-1.135.809-2.208,1.052-3.117.523-1.958,2.841-4.859,6.2-7.759,3.224-2.784,5.943-4.323,6.6-4.425a1.1,1.1,0,0,0,.115,0c.658.1,3.377,1.641,6.6,4.425,3.36,2.9,5.678,5.8,6.2,7.759.243.909.636,1.982,1.052,3.117A36.464,36.464,0,0,1,46.3,44.382c-4.25-3-11.141-5.758-15.506-5.993-.045,0-.09,0-.136,0-4.365.235-11.255,3-15.5,5.992A36.488,36.488,0,0,1,16.819,39ZM30.73,53.327c-5.709-2.851-8.2-5.514-9.03-9.75a28.263,28.263,0,0,1,9.03-2.654,28.24,28.24,0,0,1,9.031,2.655C38.927,47.813,36.44,50.476,30.73,53.327Zm4.4,2.6H31.155a1.173,1.173,0,0,0,.127-.053,38.049,38.049,0,0,0,3.824-2.095C35.122,54.562,35.13,55.27,35.129,55.931Zm-4.823,0H26.331c0-.661.007-1.369.024-2.148a38.03,38.03,0,0,0,3.823,2.095A1.28,1.28,0,0,0,30.306,55.931ZM23.87,51.962c-.05,1.537-.073,2.819-.072,3.969H20.2l-4.849-8.508a23.2,23.2,0,0,1,4.015-2.683A13.457,13.457,0,0,0,23.87,51.962Zm24.591,6.5v18.4H13.066v-18.4Zm-10.8-2.533c0-1.15-.023-2.432-.072-3.969a13.469,13.469,0,0,0,4.5-7.222,23.2,23.2,0,0,1,4.015,2.683l-4.85,8.508ZM10.533,76.862H9.578a1.266,1.266,0,0,0-1.254,1.1,8.175,8.175,0,0,1-3.777-3.254,6.876,6.876,0,0,1-.677-5.749c2.188-6.968,6.659-14.736,7.6-15.653a20.813,20.813,0,0,1,3.352-1.7l2.466,4.325H12.992a2.462,2.462,0,0,0-2.459,2.459Zm40.15,4.176a.213.213,0,0,1-.065.165l-39.7,0a.191.191,0,0,1-.074-.167V79.4H50.683Zm6.908-12.08a6.877,6.877,0,0,1-.661,5.722,8.187,8.187,0,0,1-3.73,3.255,1.267,1.267,0,0,0-1.251-1.073h-.955V58.39a2.461,2.461,0,0,0-2.458-2.459H44.174l2.465-4.325a20.78,20.78,0,0,1,3.353,1.7C50.932,54.222,55.4,61.99,57.591,68.958ZM91.467,51.245a3.727,3.727,0,0,1-3.723,3.723H54.1a14.181,14.181,0,0,0-2.713-3.78,23.706,23.706,0,0,0-3.48-1.8L48.8,47.82a1.259,1.259,0,0,0,.153-.441c.422-2.833-.882-6.39-1.929-9.248-.4-1.08-.77-2.1-.984-2.9-.927-3.47-4.95-7.289-7.265-9.256-.194-.165-.882-.743-1.8-1.442H91.467Zm0-29.245H36.387V17.52A3.728,3.728,0,0,1,40.111,13.8H87.744a3.727,3.727,0,0,1,3.723,3.723Zm-18.9-6.774A2.975,2.975,0,1,0,75.54,18.2,2.978,2.978,0,0,0,72.565,15.226Zm0,3.416a.442.442,0,1,1,.442-.441A.447.447,0,0,1,72.565,18.642Zm6.3-3.416A2.975,2.975,0,1,0,81.841,18.2,2.978,2.978,0,0,0,78.866,15.226Zm0,3.416a.442.442,0,1,1,.442-.441A.448.448,0,0,1,78.866,18.642Zm6.3-3.416A2.975,2.975,0,1,0,88.142,18.2,2.978,2.978,0,0,0,85.167,15.226Zm0,3.416a.442.442,0,1,1,.441-.441A.447.447,0,0,1,85.167,18.642Zm-39.209.792A1.268,1.268,0,0,1,44.691,20.7H40.808a1.267,1.267,0,0,1,0-2.534h3.883A1.267,1.267,0,0,1,45.958,19.434Zm0-3.071a1.267,1.267,0,0,1-1.267,1.266H40.808a1.267,1.267,0,0,1,0-2.533h3.883A1.267,1.267,0,0,1,45.958,16.363ZM24.736,75.808H36.792a2.375,2.375,0,0,0,2-3.656l-6.029-9.411a2.375,2.375,0,0,0-4,0l-6.028,9.41h0a2.375,2.375,0,0,0,2,3.656Zm6.028-11.492L36.5,73.275H25.025Zm.938,1.839-.394,4.4H30.219l-.393-4.4c-.044-.487.524-.528.527-.528h.821S31.745,65.668,31.7,66.155Zm-.092,5.794a.846.846,0,1,1-.846-.846A.847.847,0,0,1,31.61,71.949ZM59.631,47.208l6.236-15.842a1.266,1.266,0,1,1,2.357.927L61.988,48.136a1.269,1.269,0,0,1-1.179.8,1.285,1.285,0,0,1-.464-.088A1.266,1.266,0,0,1,59.631,47.208ZM51.81,39.751a1.267,1.267,0,0,1,.509-1.015l5.829-4.353a1.267,1.267,0,1,1,1.516,2.03l-4.47,3.338,4.47,3.338a1.266,1.266,0,1,1-1.515,2.029l-5.83-4.352A1.267,1.267,0,0,1,51.81,39.751Zm17.9-5.368,5.83,4.353a1.267,1.267,0,0,1,0,2.03l-5.829,4.352a1.266,1.266,0,1,1-1.516-2.029l4.471-3.338L68.19,36.413a1.267,1.267,0,0,1,1.516-2.03Z"/></svg>